<svg width="387" height="327" viewBox="0 0 387 327" fill="none" xmlns="http://www.w3.org/2000/svg">
<g clip-path="url(#clip0_3_347)">
<path d="M71.819 157.822C71.819 162.417 72.0119 166.965 72.3977 171.467C72.7014 174.981 73.1159 178.464 73.6412 181.915C74.1993 185.568 74.8833 189.178 75.6931 192.744V192.749C76.2226 195.095 76.804 197.423 77.4373 199.731C79.2751 206.442 81.5607 213.022 84.2785 219.426C84.8695 220.82 85.4796 222.203 86.1089 223.577C88.4901 228.781 91.1562 233.85 94.0951 238.759C102.337 252.547 112.626 264.999 124.608 275.687C125.905 276.842 127.219 277.978 128.552 279.095C156.842 302.762 192.547 315.701 229.41 315.644C316.445 315.644 387 244.986 387 157.822C387 70.6583 316.445 -4.8666e-05 229.41 -4.8666e-05C193.817 -0.0562528 159.262 12.0092 131.42 34.2153C130.115 35.251 128.827 36.31 127.554 37.3923C121.346 42.6653 115.552 48.4088 110.224 54.5719H110.219C85.4012 83.2226 71.7629 119.893 71.819 157.822Z" fill="#F2F2F2"/>
<path d="M340.48 185.084C355.492 176.136 366.823 159.413 365.352 141.979C351.627 155.135 333.698 163.004 314.737 164.196C307.423 164.629 299.243 164.347 293.859 169.324C290.508 172.421 288.949 177.083 288.693 181.641C288.437 186.2 289.349 190.734 290.256 195.208L289.944 196.305C307.414 196.37 325.467 194.032 340.48 185.084Z" fill="#E6E6E6"/>
<path d="M364.985 141.961C358.97 155.13 348.965 166.066 336.39 173.216C333.687 174.732 330.813 176.033 327.759 176.637C324.777 177.203 321.699 176.959 318.844 175.93C316.162 175.024 313.524 173.787 310.669 173.55C307.66 173.3 304.874 174.462 302.686 176.499C300.008 178.99 298.384 182.297 296.908 185.585C295.268 189.237 293.624 193.056 290.481 195.681C290.101 196 290.616 196.573 290.996 196.255C296.463 191.686 297.356 184.035 301.726 178.655C303.765 176.144 306.573 174.234 309.907 174.284C312.824 174.328 315.545 175.602 318.252 176.542C321.095 177.53 323.943 177.994 326.944 177.559C330.014 177.115 332.945 175.923 335.675 174.483C341.841 171.173 347.45 166.912 352.295 161.856C357.856 156.117 362.396 149.468 365.719 142.196C365.924 141.746 365.19 141.514 364.985 141.961H364.985Z" fill="white"/>
<path d="M340.574 171.153C342.059 173.103 344.187 174.461 346.579 174.985C348.971 175.509 351.47 175.164 353.632 174.012C354.068 173.777 353.725 173.087 353.288 173.322C351.277 174.398 348.948 174.719 346.722 174.227C344.496 173.735 342.519 172.462 341.147 170.638C340.849 170.242 340.278 170.759 340.574 171.153L340.574 171.153Z" fill="white"/>
<path d="M320.143 176.568C320.768 171.595 323.241 167.041 327.07 163.813C327.449 163.493 326.934 162.92 326.555 163.239C322.577 166.606 320.013 171.351 319.374 176.527C319.313 177.021 320.083 177.059 320.143 176.568V176.568Z" fill="white"/>
<path d="M356.901 155.756C356.17 155.121 355.608 154.314 355.265 153.408C354.921 152.502 354.809 151.525 354.936 150.564C355.003 150.072 354.233 150.034 354.167 150.523C354.031 151.585 354.157 152.664 354.534 153.666C354.911 154.668 355.527 155.563 356.329 156.271C356.399 156.344 356.494 156.388 356.595 156.393C356.696 156.399 356.795 156.365 356.872 156.3C356.948 156.232 356.993 156.136 356.999 156.034C357.004 155.932 356.969 155.832 356.901 155.756V155.756Z" fill="white"/>
<path d="M316.758 108.205C316.707 108.511 316.657 108.817 316.601 109.127C315.902 113.241 314.87 117.292 313.516 121.239C313.416 121.546 313.31 121.855 313.202 122.158C309.838 131.633 304.747 140.4 298.188 148.013C295.575 151.041 292.736 153.864 289.696 156.46C285.496 160.045 280.658 163.597 277.966 168.225C277.679 168.705 277.423 169.202 277.198 169.714L288.633 195.838C288.689 195.884 288.739 195.934 288.795 195.98L289.204 197.044C289.37 196.921 289.54 196.79 289.706 196.667C289.802 196.596 289.897 196.52 289.993 196.449C290.057 196.4 290.121 196.35 290.181 196.31C290.202 196.293 290.223 196.277 290.238 196.263C290.299 196.222 290.35 196.178 290.405 196.14C291.355 195.41 292.302 194.672 293.246 193.927C293.252 193.924 293.252 193.924 293.255 193.916C300.431 188.214 307.194 181.863 312.779 174.685C312.947 174.469 313.121 174.251 313.284 174.023C315.784 170.774 318.014 167.326 319.953 163.712C321.008 161.731 321.963 159.696 322.813 157.618C324.998 152.243 326.326 146.557 326.748 140.769C327.586 129.231 324.73 117.552 317.33 108.863C317.14 108.641 316.953 108.424 316.758 108.205Z" fill="#E6E6E6"/>
<path d="M316.452 108.409C319.567 122.551 318.153 137.316 312.411 150.607C311.164 153.446 309.651 156.219 307.576 158.542C305.535 160.792 302.931 162.453 300.032 163.353C297.347 164.247 294.496 164.849 292.075 166.381C289.522 167.996 287.997 170.604 287.473 173.549C286.833 177.153 287.524 180.773 288.322 184.289C289.209 188.192 290.191 192.233 289.261 196.224C289.148 196.708 289.904 196.855 290.017 196.372C291.636 189.428 287.748 182.781 288.003 175.849C288.122 172.615 289.215 169.397 291.908 167.427C294.263 165.704 297.201 165.079 299.928 164.198C302.792 163.273 305.344 161.926 307.479 159.77C309.663 157.564 311.287 154.845 312.601 152.049C315.535 145.688 317.451 138.904 318.28 131.946C319.271 124.011 318.898 115.964 317.179 108.154C317.073 107.671 316.346 107.929 316.452 108.409Z" fill="white"/>
<path d="M314.511 146.436C316.869 147.098 319.384 146.899 321.609 145.875C323.834 144.851 325.622 143.068 326.656 140.846C326.863 140.395 326.174 140.051 325.966 140.502C325.008 142.574 323.341 144.234 321.268 145.183C319.194 146.133 316.85 146.309 314.659 145.679C314.182 145.543 314.038 146.3 314.511 146.436H314.511Z" fill="white"/>
<path d="M301.454 163.079C298.963 158.732 298.199 153.604 299.316 148.718C299.427 148.234 298.671 148.087 298.56 148.57C297.408 153.657 298.213 158.992 300.815 163.51C301.063 163.94 301.701 163.507 301.454 163.079Z" fill="white"/>
<path d="M318.291 124.298C317.325 124.232 316.391 123.927 315.573 123.41C314.754 122.894 314.076 122.181 313.6 121.338C313.358 120.904 312.721 121.338 312.962 121.768C313.492 122.698 314.241 123.484 315.145 124.057C316.048 124.629 317.077 124.972 318.143 125.054C318.243 125.071 318.345 125.048 318.429 124.992C318.513 124.935 318.572 124.849 318.595 124.75C318.614 124.649 318.593 124.546 318.536 124.461C318.479 124.376 318.391 124.318 318.291 124.298V124.298Z" fill="white"/>
<path d="M277.836 36.5787L258.547 262.705L297.124 265.61V39.4557C292.527 36.4095 285.929 35.9329 277.836 36.5787Z" fill="#CCCCCC"/>
<path d="M182.625 36.5787L201.913 262.705L163.336 265.61V39.4557C167.933 36.4095 174.532 35.9329 182.625 36.5787Z" fill="#CCCCCC"/>
<path d="M169.113 274.956H291.758C293.725 274.954 295.611 274.17 297.001 272.778C298.392 271.385 299.174 269.497 299.176 267.527V42.7743C299.174 40.8048 298.392 38.9166 297.001 37.524C295.61 36.1313 293.725 35.3479 291.758 35.3457H169.113C167.146 35.3479 165.261 36.1313 163.87 37.524C162.479 38.9166 161.697 40.8048 161.695 42.7743V267.527C161.697 269.497 162.479 271.385 163.87 272.778C165.26 274.17 167.146 274.954 169.113 274.956ZM291.758 37.8117C293.072 37.8131 294.332 38.3364 295.261 39.2668C296.19 40.1972 296.712 41.4586 296.714 42.7743V267.527C296.712 268.843 296.19 270.104 295.261 271.035C294.332 271.965 293.072 272.489 291.758 272.49H169.113C167.799 272.489 166.539 271.965 165.61 271.035C164.681 270.104 164.159 268.843 164.157 267.527V42.7743C164.159 41.4586 164.681 40.1972 165.61 39.2668C166.539 38.3365 167.799 37.8131 169.113 37.8117L291.758 37.8117Z" fill="#CCCCCC"/>
<path d="M162.926 72.7461H297.945V75.2121H162.926V72.7461Z" fill="#CCCCCC"/>
<path d="M162.926 113.846H297.945V116.312H162.926V113.846Z" fill="#CCCCCC"/>
<path d="M254.13 36.5786H256.592V148.78H254.13V36.5786Z" fill="#CCCCCC"/>
<path d="M204.279 36.5786H206.741V148.78H204.279V36.5786Z" fill="#CCCCCC"/>
<path d="M147.536 281.737H309.231C312.169 281.737 314.988 280.568 317.066 278.487C319.144 276.406 320.311 273.583 320.311 270.64C320.311 267.697 319.144 264.875 317.066 262.794C314.988 260.713 312.169 259.543 309.231 259.543H147.536C144.598 259.543 141.779 260.713 139.701 262.794C137.623 264.875 136.456 267.697 136.456 270.64C136.456 273.583 137.623 276.406 139.701 278.487C141.779 280.568 144.598 281.737 147.536 281.737Z" fill="#CCCCCC"/>
<path d="M162.926 143.026H297.124V151.246H162.926V143.026Z" fill="#CCCCCC"/>
<path d="M253.748 169.187L253.918 169.104C263.066 164.678 275.046 164.682 292.763 169.119L292.952 169.166L293.009 168.979C294.883 162.825 297.006 155.854 293.018 152.425C292.962 142.361 284.148 134.19 273.321 134.19C262.496 134.19 253.683 142.357 253.624 152.418C247.691 156.961 250.518 163.674 253.652 169.023L253.748 169.187Z" fill="#2F2E41"/>
<path d="M197.52 147.638C197.684 148.453 198.024 149.223 198.517 149.892C199.01 150.562 199.644 151.115 200.374 151.512C201.103 151.91 201.911 152.142 202.74 152.194C203.569 152.245 204.399 152.113 205.172 151.808L237.502 184.345L240.386 174.242L208.277 144.028C207.679 142.761 206.639 141.759 205.352 141.209C204.066 140.66 202.623 140.603 201.297 141.048C199.971 141.493 198.854 142.409 198.158 143.624C197.462 144.839 197.235 146.267 197.52 147.638L197.52 147.638Z" fill="#FFB6B6"/>
<path d="M277.422 178.961C277.422 178.961 280.355 185.618 273.118 189.723C265.88 193.828 240.585 188.156 236.48 187.364C232.376 186.572 217.046 163.597 217.046 163.597L219.214 152.33L239.545 170.005L277.422 178.961Z" fill="#519259"/>
<path d="M282.76 215.773L282.35 223.582C282.35 223.582 283.561 230.499 282.565 231.992C281.576 233.477 254.597 233.664 254.597 233.664C254.597 233.664 252.814 224.04 251.279 215.616L282.76 215.773Z" fill="#FFB6B6"/>
<path d="M205.191 319.023L199.55 317.882L201.165 295.066L209.489 296.75L205.191 319.023Z" fill="#FFB6B6"/>
<path d="M197.111 289.332L191.868 286.971L198.67 265.14L206.409 268.625L197.111 289.332Z" fill="#FFB6B6"/>
<path d="M192.544 277.031L202.417 282.63L226.766 243.445C243.86 254.978 260.575 260.501 277.425 263.448C283.122 264.464 288.931 263.949 290.025 258.142C290.076 257.871 290.117 257.598 290.147 257.323C290.82 250.98 282.941 242.85 281.94 235.089L260.377 233.793L257.719 237.207L232.783 221.854C227.768 218.766 221.172 220.436 218.051 225.584C217.886 225.856 217.733 226.134 217.592 226.42L192.544 277.031Z" fill="#2F2E41"/>
<path d="M198.587 303.391L209.884 304.443L230.368 262.488C250.681 265.987 269.844 267.107 286.419 262.875C292.031 261.462 295.461 255.659 294.081 249.913C294.016 249.645 293.942 249.379 293.857 249.116C291.873 243.055 286.681 238.766 282.589 232.099L252.706 232.554L256.044 244.087L227.014 240.325C221.176 239.569 215.844 243.801 215.105 249.777C215.066 250.093 215.041 250.41 215.029 250.728L198.587 303.391Z" fill="#2F2E41"/>
<path d="M271.092 163.222C264.39 163.222 258.958 157.781 258.958 151.069C258.958 144.358 264.39 138.917 271.092 138.917C277.794 138.917 283.226 144.358 283.226 151.069C283.226 157.781 277.794 163.222 271.092 163.222Z" fill="#FFB6B6"/>
<path d="M278.206 167.609L267.08 168.92C266.611 168.975 266.17 169.175 265.82 169.493C265.47 169.811 265.228 170.23 265.127 170.692L263.358 178.801L252.328 191.809C252.328 191.809 248.367 199.246 249.852 207.675C251.337 216.104 251.99 222.367 251.99 222.367C251.99 222.367 281.578 233.477 282.568 231.99C283.558 230.502 283.88 223.746 283.88 223.746L287.84 179.618C287.84 179.618 283.384 172.18 280.909 172.18C279.311 172.127 279.516 168.525 278.206 167.609Z" fill="#519259"/>
<path d="M251.689 225.081C250.129 225.081 248.864 223.561 248.864 221.686C248.864 219.811 250.129 218.291 251.689 218.291C253.25 218.291 254.514 219.811 254.514 221.686C254.514 223.561 253.25 225.081 251.689 225.081Z" fill="#519259"/>
<path d="M207.99 313.149L199.39 308.833L197.77 312.619L186.896 314.821C186.359 314.929 185.87 315.207 185.502 315.613C185.134 316.02 184.905 316.533 184.849 317.079C184.792 317.625 184.912 318.174 185.19 318.647C185.467 319.12 185.889 319.492 186.392 319.708L196.899 324.219L200.313 321.25L199.417 325.299L203.378 327L207.99 313.149Z" fill="#2F2E41"/>
<path d="M199.572 287.515L191.05 283.049L189.363 286.806L178.452 288.815C177.913 288.915 177.42 289.184 177.045 289.583C176.67 289.983 176.432 290.493 176.366 291.037C176.3 291.582 176.41 292.134 176.679 292.612C176.949 293.089 177.363 293.469 177.863 293.694L188.289 298.388L191.754 295.481L190.787 299.513L194.718 301.283L199.572 287.515Z" fill="#2F2E41"/>
<path d="M278.025 147.258C281.231 147.263 284.36 146.274 286.982 144.428L287.07 144.366V144.259C287.066 141.154 285.833 138.176 283.64 135.981C281.447 133.785 278.474 132.549 275.373 132.546H270.449C267.348 132.549 264.375 133.785 262.182 135.981C259.989 138.176 258.756 141.154 258.753 144.259C258.756 144.97 259.036 145.651 259.534 146.158C260.031 146.665 260.706 146.958 261.416 146.973L277.748 147.255C277.84 147.257 277.933 147.258 278.025 147.258Z" fill="#2F2E41"/>
<path d="M257.932 142.01C256.361 141.102 256.099 138.613 257.346 136.451C258.592 134.288 260.876 133.271 262.446 134.179C264.016 135.087 264.279 137.576 263.032 139.738C261.786 141.901 259.502 142.918 257.932 142.01Z" fill="#2F2E41"/>
<path d="M282.491 139.597C280.728 137.832 280.338 135.36 281.62 134.076C282.902 132.792 285.371 133.182 287.134 134.947C288.897 136.713 289.287 139.185 288.004 140.469C286.722 141.753 284.254 141.363 282.491 139.597Z" fill="#2F2E41"/>
<path d="M175.099 250.707H187.211C187.484 250.707 187.754 250.766 188.002 250.881C188.25 250.995 188.47 251.163 188.646 251.372C189.093 251.29 189.553 251.315 189.988 251.445C190.423 251.575 190.822 251.807 191.15 252.121C191.478 252.436 191.728 252.823 191.877 253.253C192.027 253.682 192.073 254.141 192.011 254.592C191.95 255.042 191.782 255.472 191.523 255.845C191.263 256.219 190.919 256.525 190.518 256.739C190.117 256.953 189.671 257.069 189.217 257.077C188.763 257.085 188.314 256.986 187.905 256.786L186.901 260.055C186.782 260.443 186.542 260.782 186.216 261.022C185.891 261.263 185.497 261.393 185.092 261.393H177.217C176.813 261.393 176.419 261.263 176.093 261.022C175.768 260.782 175.528 260.443 175.409 260.055L173.29 253.16C173.203 252.876 173.184 252.577 173.233 252.284C173.283 251.992 173.401 251.715 173.577 251.477C173.753 251.238 173.982 251.044 174.246 250.911C174.511 250.777 174.803 250.707 175.099 250.707ZM189.157 256.256C189.702 256.256 190.224 256.039 190.608 255.654C190.993 255.268 191.209 254.746 191.209 254.201C191.209 253.656 190.993 253.133 190.608 252.748C190.224 252.362 189.702 252.146 189.157 252.146C189.12 252.146 189.085 252.155 189.048 252.157C189.13 252.488 189.12 252.834 189.019 253.16L188.153 255.981C188.458 256.159 188.804 256.253 189.157 256.256Z" fill="#3F3D56"/>
<path d="M229.183 241.785C230.01 241.862 230.844 241.756 231.625 241.475C232.407 241.194 233.118 240.745 233.708 240.159C234.297 239.573 234.752 238.865 235.038 238.084C235.325 237.304 235.438 236.469 235.368 235.641L275.766 213.96L266.93 208.294L228.816 230.429C227.433 230.639 226.175 231.35 225.281 232.427C224.387 233.503 223.917 234.871 223.963 236.271C224.008 237.671 224.564 239.005 225.526 240.021C226.489 241.038 227.79 241.665 229.183 241.785Z" fill="#FFB6B6"/>
<path d="M282.07 174.117C282.07 174.117 289.279 173.213 291.129 181.334C292.98 189.455 280.297 212.096 278.362 215.806C276.426 219.516 250.052 227.631 250.052 227.631L239.896 222.319L262.636 207.886L282.07 174.117Z" fill="#519259"/>
<path d="M231.256 140.56H228.794C227.597 140.56 226.448 141.037 225.602 141.884C224.755 142.732 224.28 143.882 224.28 145.081H235.771C235.771 143.882 235.295 142.732 234.448 141.884C233.602 141.037 232.454 140.56 231.256 140.56Z" fill="#CCCCCC"/>
<path d="M309.337 56.21C295.864 56.21 284.942 45.2722 284.942 31.7797C284.942 18.2872 295.864 7.34937 309.337 7.34937C322.809 7.34937 333.731 18.2872 333.731 31.7797C333.731 45.2722 322.809 56.21 309.337 56.21Z" fill="#FF6584"/>
<path d="M234.647 30.5064C241.103 23.724 248.601 17.5366 257.477 14.267C259.949 13.3523 262.513 12.7072 265.123 12.3426C265.144 12.3397 265.164 12.344 265.185 12.3423C265.228 12.3313 265.271 12.3228 265.314 12.3169C268.965 11.8511 272.671 12.0752 276.24 12.9775C277.985 13.416 279.687 14.01 281.327 14.7522C282.972 15.556 284.566 16.4608 286.1 17.4614C289.347 19.4078 292.922 20.7434 296.648 21.4022C298.519 21.7395 300.413 21.9257 302.314 21.9591C303.962 21.9922 305.517 22.0496 307.08 22.6461C308.748 23.2746 310.247 24.2849 311.457 25.5966C312.666 26.9082 313.553 28.4848 314.046 30.2006C314.084 30.3534 314.073 30.5144 314.014 30.6602C313.954 30.8061 313.85 30.9293 313.717 31.0121C313.294 31.3152 312.882 31.6591 312.438 31.9291C312.043 32.1102 311.621 32.2254 311.189 32.2703C310.483 32.4194 309.776 32.5642 309.069 32.7047C306.462 33.222 303.844 33.6799 301.215 34.0785C295.896 34.8849 290.548 35.453 285.171 35.7827C274.4 36.436 263.592 36.1107 252.879 34.8107C246.859 34.0804 240.879 33.0447 234.963 31.7074C234.844 31.6723 234.735 31.6069 234.648 31.5173C234.561 31.4278 234.498 31.3173 234.466 31.1965C234.435 31.0756 234.434 30.9486 234.466 30.8277C234.498 30.7068 234.56 30.5961 234.647 30.5064Z" fill="#E6E6E6"/>
<path d="M308.179 46.841C310.651 45.9263 313.215 45.2811 315.826 44.9166C315.847 44.9137 315.867 44.9179 315.887 44.9162C315.93 44.9053 315.973 44.8968 316.016 44.8909C319.667 44.4251 323.373 44.6491 326.942 45.5514C328.687 45.99 330.389 46.584 332.029 47.3262C333.674 48.13 335.268 49.0348 336.802 50.0354C340.049 51.9818 343.624 53.3173 347.35 53.9762C349.221 54.3135 351.115 54.4997 353.016 54.5331C354.665 54.5662 356.22 54.6236 357.782 55.2201C359.45 55.8485 360.949 56.8589 362.159 58.1705C363.369 59.4822 364.255 61.0588 364.748 62.7746C364.786 62.9274 364.775 63.0883 364.716 63.2342C364.657 63.38 364.552 63.5032 364.419 63.586C363.996 63.8891 363.584 64.233 363.14 64.5031C362.745 64.6841 362.323 64.7993 361.891 64.8442C361.185 64.9934 360.479 65.1382 359.771 65.2786C357.164 65.7959 354.546 66.2539 351.917 66.6524C346.598 67.4589 341.25 68.0269 335.873 68.3566C325.102 69.01 314.294 68.6847 303.581 67.3846C297.561 66.6544 291.581 65.6186 285.666 64.2813C285.546 64.2463 285.437 64.1808 285.35 64.0913C285.263 64.0018 285.201 63.8912 285.169 63.7704C285.137 63.6496 285.137 63.5225 285.168 63.4016C285.2 63.2807 285.262 63.1701 285.349 63.0804C291.805 56.298 299.303 50.1106 308.179 46.841Z" fill="#E6E6E6"/>
<path d="M132.26 228.965L151.02 204.284L165.822 212.666L134.455 249.969L132.26 228.965Z" fill="#3F3D56"/>
<path d="M89.0473 188.844C88.6306 199.187 87.0306 209.448 84.2785 219.426C84.8695 220.819 85.4796 222.203 86.1089 223.577C88.49 228.781 91.1562 233.85 94.0951 238.759C102.337 252.547 112.626 264.999 124.608 275.687C125.905 276.842 127.219 277.978 128.552 279.095C136.148 268.606 140.248 257.032 141.869 245.122C142.074 243.609 142.242 242.08 142.369 240.56V240.551C142.681 236.856 142.781 233.145 142.669 229.438C142.665 229.142 142.657 228.842 142.644 228.542C142.501 224.58 142.144 220.61 141.606 216.677V216.673C141.545 216.22 141.483 215.768 141.413 215.316C141.216 213.96 140.995 212.604 140.753 211.256C139.343 203.481 137.377 195.818 134.868 188.326V188.322C134.798 188.104 134.728 187.891 134.65 187.677C134.379 186.863 134.104 186.058 133.821 185.252C133.803 185.189 133.781 185.127 133.755 185.067C133.39 184.015 133.017 182.971 132.635 181.935C132.532 181.648 132.426 181.36 132.315 181.072C131.884 179.917 131.445 178.771 130.998 177.64C130.858 177.279 130.714 176.917 130.571 176.559C130.46 176.284 130.353 176.009 130.238 175.737V175.733C129.586 174.118 128.925 172.534 128.256 170.982C126.381 166.617 124.452 162.512 122.572 158.726L122.568 158.722C114.767 143.051 107.675 132.875 107.675 132.875L81.0446 141.506C84.2211 147.149 86.6793 155.471 88.0254 165.29C89.0625 173.094 89.4045 180.975 89.0473 188.84L89.0473 188.844Z" fill="#3F3D56"/>
<path d="M133.308 186.333C133.464 185.967 133.64 185.61 133.821 185.252C134.757 183.437 135.962 181.774 137.396 180.32C137.609 180.102 137.831 179.884 138.06 179.679C140.532 177.399 143.538 175.779 146.801 174.97C150.063 174.161 153.476 174.189 156.725 175.051L156.741 175.059L156.865 175.092L156.836 175.232C156.713 175.883 156.534 176.522 156.302 177.143C156.241 177.312 156.171 177.472 156.101 177.632C156.072 177.706 156.036 177.772 156.003 177.846C156.003 177.846 156.007 177.85 155.999 177.85C155.999 177.854 155.995 177.858 155.995 177.862C155.917 178.014 155.843 178.171 155.761 178.318C155.929 178.158 156.089 177.994 156.245 177.825C156.397 177.669 156.536 177.505 156.676 177.34C157.154 176.782 157.586 176.185 157.969 175.557L158.034 175.446L158.149 175.491C159.698 176.028 161.175 176.753 162.549 177.649L162.696 177.747C163.745 178.437 164.926 178.898 166.164 179.1C167.402 179.303 168.669 179.242 169.882 178.923C171.795 178.429 173.789 178.339 175.738 178.658C177.687 178.977 179.549 179.698 181.205 180.776C182.302 181.492 183.294 182.358 184.152 183.349C184.225 183.435 184.299 183.526 184.373 183.612C184.529 183.801 184.677 183.994 184.82 184.192C186.363 186.257 187.31 188.706 187.558 191.273L187.566 191.368L187.488 191.421C186.099 192.374 184.529 193.029 182.875 193.344C183.914 193.49 184.966 193.516 186.011 193.423H186.015C186.489 193.383 186.96 193.317 187.426 193.225L187.513 193.209H187.517L187.623 193.188L187.607 193.386C187.484 195.897 186.695 198.33 185.321 200.434L185.28 200.492C185.265 200.513 185.251 200.535 185.239 200.557C184.657 201.449 184.172 202.401 183.794 203.397C182.835 205.872 182.624 208.575 183.187 211.169C183.825 213.944 183.613 216.847 182.579 219.499C181.545 222.151 179.738 224.43 177.392 226.039C175.332 227.459 172.931 228.303 170.436 228.485C170.096 228.513 169.751 228.53 169.406 228.53C167.433 228.536 165.48 228.128 163.673 227.334L163.607 227.309L163.591 227.235C163.244 226.112 162.755 225.038 162.138 224.038C162.34 224.826 162.442 225.636 162.442 226.45V226.721L162.208 226.586C162.007 226.467 161.802 226.339 161.617 226.22C160.508 225.495 159.504 224.621 158.633 223.623C158.293 223.228 157.948 222.846 157.587 222.464L157.583 222.459C156.881 221.711 156.138 220.98 155.367 220.281C153.725 218.805 151.969 217.462 150.114 216.266C148.26 215.074 146.322 214.019 144.315 213.109H144.311C144.085 213.002 143.855 212.9 143.629 212.801C142.63 212.365 141.668 211.848 140.753 211.256C140.72 211.235 140.691 211.219 140.662 211.198C136.695 208.597 133.778 204.67 132.432 200.116C131.085 195.563 131.395 190.678 133.308 186.333L133.308 186.333Z" fill="#519259"/>
<path opacity="0.15" d="M182.511 217.005C182.623 217.505 182.708 218.01 182.765 218.519C183.529 216.101 183.64 213.523 183.086 211.048C183.001 210.67 182.937 210.287 182.886 209.902C182.128 212.193 181.998 214.646 182.511 217.005Z" fill="black"/>
<path opacity="0.15" d="M182.201 199.177C183.416 199.346 184.649 199.352 185.866 199.194C186.185 198.592 186.46 197.968 186.69 197.326C185.334 198.242 183.807 198.872 182.201 199.177Z" fill="black"/>
<path opacity="0.15" d="M185.964 193.291C186.412 194.44 186.71 195.642 186.851 196.868C187.225 195.701 187.446 194.489 187.508 193.265L187.518 193.067L187.324 193.105C186.874 193.189 186.42 193.251 185.964 193.291Z" fill="black"/>
<path opacity="0.15" d="M181.099 180.654C179.445 179.575 177.584 178.852 175.636 178.532C173.688 178.213 171.694 178.303 169.783 178.798C168.569 179.119 167.302 179.181 166.063 178.979C164.824 178.777 163.642 178.315 162.593 177.625L162.445 177.527C161.073 176.629 159.596 175.903 158.048 175.364L157.929 175.323L157.865 175.43C157.253 176.444 156.511 177.373 155.659 178.194C156.176 177.228 156.539 176.186 156.733 175.107L156.761 174.965L156.621 174.928C153.574 174.12 150.379 174.046 147.298 174.71C144.217 175.374 141.336 176.758 138.89 178.75C136.445 180.741 134.504 183.284 133.227 186.169C131.949 189.055 131.371 192.202 131.539 195.354C132.186 192.785 133.335 190.369 134.92 188.247C136.505 186.125 138.495 184.34 140.775 182.994C143.054 181.648 145.578 180.768 148.199 180.406C150.821 180.044 153.488 180.207 156.046 180.884L156.186 180.922L156.158 181.064C155.964 182.143 155.601 183.185 155.083 184.151C155.936 183.329 156.678 182.4 157.29 181.387L157.354 181.28L157.473 181.32C159.021 181.859 160.498 182.585 161.87 183.483L162.018 183.581C163.067 184.272 164.249 184.733 165.488 184.935C166.727 185.137 167.994 185.076 169.208 184.755C172.385 183.929 175.749 184.233 178.728 185.614C181.706 186.995 184.114 189.368 185.541 192.328C186.176 192.022 186.792 191.678 187.385 191.296L187.466 191.245L187.456 191.15C187.252 189.035 186.574 186.993 185.474 185.176C184.373 183.358 182.878 181.813 181.099 180.654Z" fill="black"/>
<path d="M28.5309 75.6396L28.9207 75.3807L29.2039 75.7506C31.3954 78.5139 33.1391 81.6054 34.3708 84.9117C34.2008 81.1028 33.5358 77.3324 32.3927 73.6956L32.2696 73.3134L32.6225 73.112C37.2143 70.5081 42.107 68.4764 47.1914 67.0622L47.7455 66.9142C51.6422 65.8434 55.2699 63.962 58.3918 61.3928C61.5138 58.8236 64.0599 55.6242 65.8642 52.0033C70.0571 43.6932 76.6809 36.8613 84.8516 32.4193C93.0224 27.9772 102.352 26.1363 111.594 27.1422H111.598C111.697 27.1504 111.799 27.1627 111.898 27.1751C112.066 27.1915 112.23 27.2121 112.394 27.2326C112.731 27.2778 113.059 27.323 113.388 27.3723C113.667 27.4134 113.95 27.4587 114.229 27.508C114.377 27.5285 114.52 27.5532 114.664 27.582C114.808 27.6066 114.955 27.6313 115.099 27.66H115.103C117.859 28.182 120.56 28.9594 123.171 29.9822H123.175V29.9863L123.836 30.2452C124.517 30.5247 125.193 30.8206 125.864 31.1329C126.015 31.2028 126.163 31.2768 126.315 31.3466C126.356 31.3672 126.401 31.3878 126.442 31.4124C126.873 31.6179 127.3 31.8316 127.723 32.0577C127.784 32.0864 127.846 32.1193 127.907 32.1522L128.301 32.3618C129.167 32.8303 130.018 33.3276 130.854 33.8537C130.924 33.8948 130.989 33.9359 131.059 33.9811C131.133 34.0305 131.211 34.0798 131.285 34.1291C131.33 34.1537 131.375 34.1866 131.42 34.2154C131.547 34.2935 131.671 34.3757 131.794 34.462C132.04 34.6223 132.286 34.7867 132.528 34.9552C132.779 35.1237 133.025 35.3004 133.271 35.4772L133.517 35.6539L133.472 35.958C133.431 36.2087 133.394 36.4594 133.349 36.706C133.308 36.9526 133.267 37.1951 133.222 37.4376C133.152 37.8445 133.074 38.2473 132.996 38.6377C132.943 38.8966 132.894 39.1515 132.836 39.4022C132.783 39.6611 132.725 39.92 132.664 40.1789C132.545 40.7132 132.417 41.2311 132.282 41.7407C132.216 41.9955 132.147 42.2504 132.073 42.5011C132.032 42.6531 131.991 42.8052 131.946 42.9532C131.913 43.0559 131.88 43.1587 131.847 43.2614C131.839 43.2943 131.831 43.3313 131.818 43.3683C131.809 43.4031 131.798 43.4374 131.785 43.471C131.74 43.6231 131.695 43.7711 131.65 43.9149C131.625 43.993 131.601 44.0711 131.572 44.145C131.515 44.3218 131.453 44.5026 131.391 44.6752C131.326 44.8725 131.256 45.0698 131.186 45.263C131.17 45.3123 131.153 45.3575 131.137 45.4068C131.125 45.4438 131.112 45.4808 131.096 45.5178C131.08 45.5589 131.063 45.6041 131.047 45.6452C130.977 45.8301 130.907 46.0192 130.833 46.2041C130.809 46.2699 130.784 46.3398 130.755 46.4055C130.09 48.0799 129.273 49.6895 128.314 51.2142C129.376 50.3018 130.4 49.3345 131.383 48.3125C132.902 46.7323 134.301 45.0412 135.569 43.2532C135.672 43.1134 135.774 42.9696 135.869 42.8258C136.062 42.5504 136.251 42.275 136.435 41.9955C136.632 41.7078 136.821 41.4078 137.006 41.1119C137.129 40.9146 137.252 40.7132 137.371 40.516C137.49 40.3269 137.601 40.142 137.707 39.9529L138.027 39.4022H138.032V39.4063L138.483 39.8501C138.664 40.0269 138.844 40.2036 139.021 40.3803C144.537 45.9383 148.532 52.8239 150.622 60.3752L150.684 60.6013L150.746 60.8355C150.865 61.2548 150.984 61.6616 151.111 62.0768V62.0809C151.234 62.4919 151.365 62.9029 151.505 63.3056C151.632 63.6879 151.763 64.066 151.903 64.4441C151.948 64.5715 151.997 64.6989 152.051 64.8263C152.137 65.0729 152.231 65.3154 152.326 65.562C152.371 65.673 152.416 65.788 152.461 65.899C152.572 66.1703 152.683 66.4415 152.793 66.7087C152.81 66.7498 152.83 66.795 152.851 66.8361C152.884 66.9183 152.921 67.0005 152.953 67.0786C153.04 67.2758 153.13 67.4772 153.216 67.6745C153.278 67.8019 153.335 67.9334 153.393 68.0608C153.417 68.1184 153.446 68.1759 153.471 68.2335C153.622 68.5623 153.778 68.8869 153.943 69.2075C154.127 69.5857 154.316 69.9638 154.517 70.3337C154.694 70.6789 154.878 71.0159 155.071 71.3529C155.403 71.9489 155.752 72.5407 156.113 73.1161C156.253 73.3381 156.393 73.56 156.536 73.7819C156.569 73.8354 156.602 73.8888 156.635 73.9381C156.754 74.1313 156.877 74.3162 157.004 74.5053C157.09 74.6327 157.176 74.7601 157.263 74.8834C157.406 75.1053 157.558 75.319 157.714 75.5287C157.755 75.5944 157.8 75.6561 157.845 75.7177C158.075 76.0383 158.305 76.3506 158.539 76.663C158.547 76.6671 158.547 76.6712 158.551 76.6753C158.559 76.6753 158.559 76.6794 158.563 76.6836C158.666 76.8192 158.769 76.9548 158.875 77.0863C159.015 77.2795 159.167 77.4686 159.319 77.6535C159.565 77.9659 159.823 78.2823 160.086 78.5906C160.094 78.5988 160.098 78.607 160.107 78.6111C161.466 80.2111 162.939 81.711 164.514 83.0992C164.543 83.1239 164.563 83.1485 164.592 83.1691C164.814 83.3622 165.035 83.5554 165.265 83.7445C165.36 83.8225 165.454 83.9006 165.548 83.9787C165.704 84.1102 165.864 84.2418 166.02 84.3609C166.039 84.3798 166.059 84.3964 166.082 84.4103C166.221 84.5253 166.357 84.6322 166.496 84.7391C166.665 84.8747 166.833 85.0021 167.005 85.1295C167.818 85.746 168.652 86.3282 169.509 86.8762C169.636 86.9625 169.771 87.0489 169.903 87.1311C169.981 87.1804 170.059 87.2297 170.132 87.2708C170.444 87.464 170.756 87.653 171.068 87.8339C171.38 88.0188 171.7 88.1955 172.016 88.3682C172.693 88.738 173.362 89.1244 174.015 89.5272C174.343 89.7327 174.671 89.9382 174.996 90.1478C176.284 90.9862 177.525 91.8836 178.718 92.8398C179.911 93.7966 181.054 94.813 182.145 95.8853C182.28 96.0168 182.415 96.1524 182.551 96.2921C182.822 96.5593 183.084 96.8305 183.335 97.1018C183.737 97.5169 184.123 97.9443 184.504 98.3759C186.517 100.663 188.299 103.144 189.823 105.782C190.589 107.099 191.284 108.456 191.908 109.847C192.38 110.887 192.811 111.951 193.201 113.028C193.459 113.747 193.701 114.473 193.927 115.206C194.038 115.572 194.144 115.942 194.247 116.312C194.596 117.565 194.887 118.831 195.125 120.101C195.318 121.12 195.474 122.141 195.593 123.163C195.655 123.677 195.704 124.19 195.749 124.7C195.855 125.953 195.909 127.207 195.911 128.462C195.918 132.227 195.461 135.979 194.551 139.632C194.35 140.437 194.127 141.239 193.882 142.036C193.759 142.435 193.627 142.829 193.496 143.224C193.164 144.21 192.796 145.187 192.392 146.154C192.15 146.734 191.896 147.309 191.629 147.88C189.933 151.512 187.77 154.906 185.194 157.974C184.771 158.48 184.335 158.977 183.885 159.466C183.881 159.466 183.885 159.47 183.885 159.47C182.768 160.69 181.586 161.848 180.343 162.939H180.339C179.842 163.379 179.338 163.805 178.825 164.217C178.82 164.213 178.82 164.217 178.82 164.217C178.303 164.637 177.782 165.039 177.249 165.43C176.982 165.623 176.711 165.816 176.436 166.009C175.898 166.391 175.35 166.76 174.79 167.115H174.786C174.228 167.477 173.662 167.822 173.087 168.151C171.934 168.812 170.752 169.433 169.537 169.996L169.332 170.09L169.123 169.996C167.175 169.118 165.167 168.381 163.115 167.789C162.663 167.657 162.208 167.538 161.756 167.423C160.615 167.14 159.466 166.901 158.309 166.708C159.437 167.274 160.525 167.916 161.568 168.627C162.376 169.174 163.172 169.77 163.972 170.427C164.239 170.645 164.506 170.871 164.773 171.102L165.438 171.677L164.604 171.952C164.301 172.051 163.997 172.15 163.693 172.24C163.279 172.372 162.869 172.491 162.466 172.602C161.588 172.848 160.704 173.066 159.815 173.255C159.598 173.3 159.384 173.346 159.167 173.391C158.744 173.473 158.317 173.555 157.89 173.629C157.873 173.634 157.855 173.636 157.837 173.637C157.394 173.711 156.947 173.781 156.503 173.843C155.678 173.962 154.854 174.057 154.029 174.126C153.938 174.139 153.848 174.143 153.754 174.147C153.553 174.163 153.356 174.18 153.155 174.192C152.711 174.221 152.264 174.242 151.817 174.258C151.784 174.258 151.755 174.262 151.722 174.262C151.497 174.27 151.271 174.279 151.045 174.283C151.045 174.283 151.045 174.287 151.041 174.283C150.815 174.287 150.59 174.291 150.364 174.291H149.116C148.882 174.291 148.648 174.295 148.41 174.295C148.082 174.295 147.75 174.299 147.421 174.303C147.335 174.303 147.245 174.307 147.155 174.307C146.629 174.315 146.104 174.328 145.579 174.34C145.546 174.34 145.513 174.344 145.48 174.344C144.955 174.361 144.43 174.377 143.904 174.402C143.789 174.406 143.674 174.41 143.555 174.418C143.051 174.439 142.546 174.463 142.041 174.492C141.897 174.5 141.75 174.513 141.602 174.521C141.22 174.542 140.835 174.566 140.453 174.595C140.227 174.607 140.006 174.624 139.78 174.644C138.869 174.714 137.962 174.792 137.051 174.883C136.747 174.907 136.443 174.94 136.14 174.973C135.327 175.059 134.512 175.154 133.694 175.257C133.329 175.298 132.963 175.347 132.598 175.396C132.557 175.401 132.516 175.405 132.475 175.413C132.023 175.474 131.576 175.536 131.125 175.602C130.829 175.643 130.534 175.688 130.238 175.733C129.935 175.779 129.631 175.824 129.327 175.877C129.163 175.902 128.999 175.931 128.831 175.959C128.437 176.021 128.039 176.087 127.64 176.161C127.605 176.164 127.569 176.17 127.534 176.177C126.688 176.325 125.839 176.481 124.993 176.65C124.497 176.744 124.004 176.843 123.512 176.946C123.126 177.024 122.74 177.106 122.355 177.188C122.289 177.201 122.223 177.217 122.158 177.234C122.143 177.238 122.128 177.241 122.112 177.242C121.53 177.369 120.943 177.501 120.36 177.64C118.337 178.109 116.316 178.63 114.299 179.202C113.835 179.33 113.371 179.465 112.907 179.601C112.71 179.658 112.518 179.716 112.325 179.774C111.922 179.893 111.524 180.012 111.122 180.139C110.769 180.246 110.412 180.357 110.059 180.472C109.838 180.542 109.616 180.612 109.394 180.686C109.05 180.793 108.705 180.904 108.364 181.023C108.073 181.113 107.786 181.208 107.498 181.311C107.088 181.446 106.674 181.586 106.263 181.734C106.144 181.775 106.021 181.816 105.902 181.861C105.401 182.034 104.901 182.211 104.4 182.396C103.912 182.572 103.423 182.753 102.939 182.934C102.602 183.061 102.266 183.185 101.934 183.316C101.56 183.46 101.187 183.604 100.817 183.752C100.284 183.962 99.7461 184.175 99.2126 184.393C98.7202 184.59 98.2318 184.792 97.7393 185.001C97.649 185.038 97.5546 185.075 97.4644 185.116C97.0375 185.293 96.6107 185.478 96.188 185.663C95.9131 185.778 95.6422 185.897 95.3714 186.017C94.1894 186.534 93.0089 187.07 91.8297 187.624H91.8256C91.0869 187.973 90.3358 188.306 89.5807 188.622C89.4042 188.696 89.2278 188.77 89.0472 188.84C88.7476 188.967 88.4439 189.087 88.1402 189.21C87.9433 189.288 87.7463 189.366 87.5452 189.44C87.2538 189.555 86.9583 189.666 86.6628 189.773C86.3509 189.888 86.0431 190.003 85.7271 190.11C85.6163 190.151 85.5055 190.188 85.3906 190.229C85.0254 190.353 84.6601 190.476 84.2908 190.595C84.2538 190.607 84.2169 190.62 84.1758 190.632C83.7901 190.755 83.4043 190.879 83.0145 190.994C82.9836 191.005 82.952 191.015 82.92 191.022C82.5014 191.15 82.0746 191.273 81.6519 191.392C81.0282 191.565 80.4002 191.729 79.7723 191.881C79.6574 191.91 79.5425 191.939 79.4276 191.964C79.0911 192.046 78.7587 192.124 78.4222 192.198C78.0651 192.28 77.704 192.354 77.3469 192.428C76.9858 192.502 76.6246 192.576 76.2676 192.642C76.0747 192.679 75.8818 192.716 75.693 192.749L75.1883 192.835C74.8394 192.897 74.4906 192.95 74.1377 193.008C74.1279 193.007 74.1182 193.009 74.1089 193.012C73.7109 193.073 73.3169 193.131 72.9188 193.18C72.5371 193.234 72.1555 193.279 71.7738 193.324C71.6958 193.332 71.6137 193.34 71.5317 193.349C71.2157 193.386 70.8997 193.423 70.5837 193.451C70.4934 193.46 70.4031 193.468 70.3128 193.476C70.0009 193.505 69.689 193.534 69.3771 193.554C69.3145 193.562 69.2515 193.567 69.1883 193.567C68.9093 193.591 68.6302 193.612 68.3511 193.624C68.1541 193.641 67.9613 193.649 67.7643 193.661C67.6617 193.665 67.5632 193.669 67.4606 193.673C67.1897 193.69 66.9189 193.698 66.6439 193.706C66.3115 193.719 65.9791 193.727 65.6507 193.735C65.2527 193.743 64.8505 193.747 64.4524 193.747H64.4442C64.0543 193.747 63.6604 193.743 63.2704 193.735H63.1227L62.6918 193.723C62.4702 193.719 62.2486 193.71 62.0311 193.702C61.6125 193.686 61.198 193.665 60.7835 193.641C60.6193 193.632 60.451 193.62 60.2869 193.612C60.213 193.608 60.1351 193.599 60.0612 193.595C59.8026 193.579 59.5482 193.562 59.2896 193.542C59.0229 193.521 58.752 193.497 58.4852 193.468C58.1405 193.435 57.7958 193.398 57.4511 193.361C57.1802 193.332 56.9093 193.299 56.6426 193.267C56.6067 193.263 56.5711 193.258 56.5359 193.25C56.2773 193.221 56.0188 193.188 55.7644 193.151C55.4607 193.11 55.1611 193.065 54.8615 193.02C54.8287 193.016 54.7999 193.012 54.7671 193.008C54.25 192.925 53.7288 192.843 53.2076 192.749C52.6618 192.65 52.116 192.543 51.5742 192.432C51.3731 192.391 51.1761 192.346 50.9751 192.305C50.8642 192.28 50.7493 192.26 50.6426 192.235C50.4744 192.198 50.3102 192.161 50.1461 192.12C50.1174 192.116 50.0845 192.108 50.0558 192.103C49.826 192.054 49.6003 191.997 49.3704 191.939C48.9108 191.828 48.4594 191.713 48.0079 191.59C47.8068 191.54 47.6057 191.487 47.4129 191.433C47.3554 191.417 47.298 191.401 47.2446 191.384C46.4115 191.15 45.5853 190.902 44.7659 190.64C44.4047 190.525 44.0477 190.406 43.6906 190.279C42.9232 190.016 42.1626 189.739 41.4088 189.448C41.2077 189.374 41.0066 189.292 40.8055 189.214C40.5101 189.095 40.2146 188.976 39.9232 188.857C39.6606 188.746 39.3979 188.635 39.1311 188.52C38.9998 188.466 38.8685 188.409 38.7372 188.351C38.3432 188.178 37.9492 188.002 37.5593 187.825C37.2967 187.702 37.0382 187.582 36.7796 187.459C36.3692 187.262 35.963 187.06 35.5567 186.859C35.4541 186.806 35.3555 186.752 35.257 186.703C34.9985 186.571 34.74 186.436 34.4773 186.304C34.0628 186.082 33.6483 185.86 33.2379 185.63C33.0984 185.556 32.963 185.478 32.8234 185.4C32.372 185.145 31.9247 184.886 31.4814 184.623C30.5007 184.036 29.5335 183.422 28.58 182.782C28.342 182.626 28.1039 182.461 27.87 182.301C27.4268 181.997 26.9918 181.685 26.5567 181.372C26.5116 181.339 26.4706 181.307 26.4254 181.278C26.2079 181.118 25.9905 180.957 25.7729 180.793C25.3215 180.452 24.8741 180.106 24.4268 179.753C24.4186 179.749 24.4063 179.737 24.394 179.728C24.1929 179.568 23.9918 179.408 23.7948 179.247C23.1833 178.75 22.58 178.245 21.9891 177.723C21.6977 177.472 21.4104 177.213 21.1273 176.954C20.9139 176.761 20.7004 176.568 20.4911 176.371C20.0685 175.972 19.654 175.577 19.2436 175.175C19.0384 174.977 18.8373 174.772 18.6321 174.566C18.431 174.361 18.2258 174.155 18.0247 173.946C17.955 173.876 17.8852 173.802 17.8154 173.728C17.6102 173.51 17.405 173.288 17.1998 173.07C17.0234 172.881 16.851 172.684 16.6745 172.487C16.379 172.158 16.0794 171.829 15.7881 171.496C15.7727 171.477 15.7563 171.46 15.7388 171.443C15.7225 171.422 15.706 171.406 15.6937 171.389H15.6978C9.73259 164.481 5.30035 156.383 2.69443 147.631C0.0884857 138.879 -0.631729 129.672 0.581451 120.62C1.79463 111.568 4.91353 102.878 9.73175 95.1233C14.55 87.3691 20.9577 80.7281 28.5307 75.6397L28.5309 75.6396Z" fill="#519259"/>
<g opacity="0.15">
<path opacity="0.15" d="M111.597 27.1389C110.779 30.0818 109.549 32.8936 107.942 35.4903C110.632 33.1762 113.035 30.5478 115.1 27.6612C113.94 27.4414 112.773 27.2673 111.597 27.1389Z" fill="black"/>
<path opacity="0.15" d="M151.642 72.6513C154.68 74.3114 157.52 76.3107 160.108 78.6108C155.738 73.4355 152.544 67.3702 150.748 60.8355C150.726 60.757 150.704 60.678 150.683 60.5994L150.622 60.3769C148.463 52.5777 144.275 45.4926 138.485 39.8463L138.03 39.4021L137.709 39.951C135.934 42.9734 133.81 45.776 131.381 48.301C135.103 58.82 142.346 67.5747 151.642 72.6513Z" fill="black"/>
<path opacity="0.15" d="M130.249 44.6563L130.31 44.8788C130.332 44.9574 130.353 45.0364 130.375 45.1149C130.495 45.5474 130.623 45.9766 130.754 46.404C132.052 43.0364 132.964 39.532 133.472 35.9581L133.519 35.6548L133.27 35.4766C130.147 33.2293 126.756 31.3828 123.174 29.9802C126.39 34.4093 128.786 39.38 130.249 44.6563Z" fill="black"/>
<path opacity="0.15" d="M172.015 88.372C169.327 86.8985 166.811 85.1298 164.514 83.0986C169.102 88.4492 172.392 94.7913 174.124 101.628C175.856 108.465 175.984 115.61 174.497 122.504C173.011 129.399 169.95 135.855 165.556 141.367C161.161 146.878 155.552 151.296 149.167 154.274L148.959 154.37L148.752 154.276C145.304 152.716 141.668 151.61 137.935 150.986C140.265 152.175 142.437 153.651 144.399 155.381L145.063 155.956L144.23 156.232C143.511 156.47 142.792 156.689 142.093 156.883C137.986 158.029 133.74 158.598 129.477 158.574C110.105 158.449 90.5838 162.934 71.4546 171.904C68.174 173.44 64.7713 174.699 61.2818 175.669C46.0748 179.909 29.8403 178.384 15.6861 171.385C23.6661 180.628 34.1005 187.414 45.7775 190.955C57.4545 194.496 69.895 194.647 81.6542 191.39C85.1437 190.42 88.5464 189.16 91.827 187.624C110.956 178.655 130.478 174.17 149.849 174.294C154.112 174.318 158.358 173.749 162.466 172.604C163.165 172.409 163.884 172.19 164.603 171.952L165.436 171.677L164.772 171.102C162.809 169.372 160.637 167.895 158.308 166.707C162.04 167.33 165.676 168.436 169.125 169.997L169.332 170.09L169.539 169.994C177.206 166.42 183.731 160.783 188.385 153.712C193.039 146.64 195.64 138.413 195.897 129.947C196.153 121.482 194.056 113.111 189.839 105.77C185.622 98.4287 179.451 92.4053 172.015 88.3719L172.015 88.372Z" fill="black"/>
</g>
</g>
<defs>
<clipPath id="clip0_3_347">
<rect width="387" height="327" fill="white" transform="matrix(-1 0 0 1 387 0)"/>
</clipPath>
</defs>
</svg>
