<svg width="323" height="237" viewBox="0 0 323 237" fill="none" xmlns="http://www.w3.org/2000/svg">
<g clip-path="url(#clip0_3_311)">
<path d="M252.801 235.898H47.8987C47.8987 235.898 43.7453 186.519 68.3197 185.958C92.8942 185.397 90.1252 207.842 120.93 176.98C151.734 146.118 189.115 147.802 193.961 166.038C198.807 184.275 184.616 198.864 210.575 194.375C236.534 189.886 273.914 201.669 252.801 235.898Z" fill="#E6E6E6"/>
<path d="M146.891 235.909L146.2 235.887C147.812 203.376 156.212 182.488 162.975 170.69C170.317 157.879 177.393 152.693 177.463 152.642L177.923 153.061C177.854 153.112 170.861 158.246 163.577 170.97C156.852 182.718 148.498 203.521 146.891 235.909Z" fill="white"/>
<path d="M221.051 235.976L220.386 235.819C228.388 213.556 247.231 199.499 247.421 199.36L247.886 199.775C247.698 199.914 228.996 213.871 221.051 235.976Z" fill="white"/>
<path d="M80.1718 235.936L79.4859 235.859C81.6765 223.525 79.2641 210.818 72.7047 200.139C67.7324 191.98 62.0592 187.524 62.0024 187.48L62.4813 187.075C62.539 187.119 68.2999 191.644 73.3253 199.89C79.9454 210.667 82.381 223.49 80.1718 235.936Z" fill="white"/>
<path d="M124.398 154.394L127.735 158.253C128.124 158.704 128.318 159.291 128.274 159.884C128.231 160.478 127.953 161.03 127.502 161.42L95.2677 189.178C94.8157 189.566 94.2278 189.76 93.6329 189.716C93.0381 189.672 92.4848 189.395 92.0946 188.945L88.7571 185.086C88.3679 184.635 88.1739 184.048 88.2177 183.454C88.2614 182.861 88.5393 182.309 88.9905 181.919L121.224 154.161C121.676 153.773 122.264 153.579 122.859 153.623C123.454 153.666 124.007 153.944 124.398 154.394Z" fill="#F4EEA9"/>
<path d="M153.912 157.068L151.571 152.537C151.298 152.007 151.247 151.392 151.428 150.825C151.61 150.258 152.009 149.786 152.539 149.513L190.383 130.043C190.913 129.771 191.53 129.72 192.099 129.901C192.667 130.082 193.14 130.481 193.414 131.009L195.755 135.54C196.027 136.07 196.078 136.685 195.897 137.252C195.715 137.819 195.316 138.291 194.786 138.564L156.942 158.034C156.412 158.306 155.795 158.358 155.227 158.176C154.658 157.995 154.186 157.596 153.912 157.068Z" fill="#F4EEA9"/>
<path d="M150.801 151.871C150.99 151.302 151.22 149.598 151.757 149.329L168.398 139.264C168.662 139.132 168.949 139.053 169.244 139.032C169.539 139.01 169.835 139.047 170.115 139.14C170.396 139.233 170.655 139.38 170.878 139.572C171.102 139.765 171.285 140 171.418 140.264L175.611 148.889L175.611 148.889C175.878 149.421 175.923 150.037 175.735 150.602C175.547 151.167 175.143 151.635 174.61 151.903L156.238 159.14C155.705 159.406 155.087 159.451 154.521 159.263C153.955 159.076 153.486 158.672 153.218 158.141L150.926 153.585C150.684 153.108 150.623 152.561 150.752 152.042C150.766 151.985 150.782 151.928 150.801 151.871Z" fill="#3F3D56"/>
<path d="M190.473 89.9979H189.781V158.039H190.473V89.9979Z" fill="#3F3D56"/>
<path d="M187.012 2.76308V87.4519C187.012 88.0475 187.205 88.6271 187.563 89.1041C187.92 89.5812 188.422 89.9302 188.995 90.0991C189.567 90.2681 190.179 90.2479 190.739 90.0416C191.299 89.8353 191.777 89.454 192.102 88.9544C196.081 82.9173 200.984 77.54 206.632 73.0182C206.801 72.8797 206.974 72.7439 207.146 72.611C208.856 71.2645 210.63 70.0003 212.468 68.8182C212.587 68.7434 212.707 68.6658 212.826 68.5938C223.883 61.5706 236.722 57.8503 249.829 57.8722H320.231C320.965 57.8722 321.67 57.581 322.189 57.0629C322.708 56.5447 323 55.8419 323 55.1091V2.76308C323 2.03026 322.708 1.32746 322.189 0.809287C321.67 0.29111 320.965 0 320.231 0H189.781C189.046 0 188.342 0.29111 187.823 0.809287C187.303 1.32746 187.012 2.03026 187.012 2.76308Z" fill="#E6E6E6"/>
<path d="M283.28 20.0509H194.064C193.647 20.0503 193.247 19.8845 192.952 19.5901C192.658 19.2956 192.492 18.8966 192.492 18.4805C192.492 18.0644 192.658 17.6653 192.952 17.3708C193.247 17.0764 193.647 16.9107 194.064 16.91H283.28C283.487 16.9097 283.692 16.9501 283.883 17.0289C284.075 17.1077 284.248 17.2233 284.395 17.3692C284.541 17.515 284.657 17.6883 284.736 17.8789C284.816 18.0696 284.856 18.274 284.856 18.4805C284.856 18.6869 284.816 18.8913 284.736 19.082C284.657 19.2727 284.541 19.4459 284.395 19.5917C284.248 19.7376 284.075 19.8532 283.883 19.932C283.692 20.0108 283.487 20.0512 283.28 20.0509Z" fill="#CCCCCC"/>
<path d="M283.28 27.1474H194.064C193.646 27.1474 193.246 26.9819 192.951 26.6874C192.656 26.3928 192.49 25.9934 192.49 25.5768C192.49 25.1603 192.656 24.7608 192.951 24.4662C193.246 24.1717 193.646 24.0062 194.064 24.0062H283.28C283.487 24.0062 283.692 24.0468 283.883 24.1258C284.074 24.2047 284.247 24.3204 284.393 24.4662C284.539 24.6121 284.655 24.7852 284.734 24.9758C284.814 25.1663 284.854 25.3706 284.854 25.5768C284.854 25.7831 284.814 25.9873 284.734 26.1779C284.655 26.3684 284.539 26.5415 284.393 26.6874C284.247 26.8332 284.074 26.9489 283.883 27.0279C283.692 27.1068 283.487 27.1474 283.28 27.1474Z" fill="#CCCCCC"/>
<path d="M283.28 34.2436H194.064C193.647 34.243 193.247 34.0773 192.952 33.7828C192.658 33.4884 192.492 33.0893 192.492 32.6732C192.492 32.2571 192.658 31.858 192.952 31.5636C193.247 31.2691 193.647 31.1034 194.064 31.1028H283.28C283.487 31.1025 283.692 31.1429 283.883 31.2217C284.075 31.3004 284.248 31.4161 284.395 31.5619C284.541 31.7078 284.657 31.881 284.736 32.0717C284.816 32.2624 284.856 32.4668 284.856 32.6732C284.856 32.8796 284.816 33.084 284.736 33.2747C284.657 33.4654 284.541 33.6386 284.395 33.7845C284.248 33.9303 284.075 34.046 283.883 34.1248C283.692 34.2035 283.487 34.2439 283.28 34.2436Z" fill="#CCCCCC"/>
<path d="M316.052 34.2437H301.582C301.169 34.2433 300.773 34.0794 300.481 33.788C300.189 33.4966 300.024 33.1015 300.024 32.6895V18.2494C300.024 17.8374 300.189 17.4423 300.481 17.1509C300.773 16.8595 301.169 16.6956 301.582 16.6952H316.052C316.465 16.6956 316.861 16.8595 317.153 17.1509C317.445 17.4423 317.61 17.8374 317.61 18.2494V32.6895C317.61 33.1015 317.445 33.4966 317.153 33.788C316.861 34.0794 316.465 34.2433 316.052 34.2437ZM301.582 17.0406C301.26 17.041 300.953 17.1684 300.725 17.3951C300.498 17.6217 300.371 17.9289 300.37 18.2494V32.6895C300.371 33.01 300.498 33.3172 300.725 33.5438C300.953 33.7705 301.26 33.8979 301.582 33.8983H316.052C316.374 33.8979 316.682 33.7705 316.909 33.5438C317.136 33.3172 317.264 33.01 317.264 32.6895V18.2494C317.264 17.9289 317.136 17.6217 316.909 17.3951C316.682 17.1684 316.374 17.041 316.052 17.0406H301.582Z" fill="#F4EEA9"/>
<path d="M308.803 29.1105C308.698 29.1107 308.594 29.0882 308.499 29.0444C308.404 29.0006 308.319 28.9366 308.251 28.8568L303.706 23.5671C303.581 23.4208 303.519 23.2307 303.534 23.0387C303.549 22.8467 303.639 22.6685 303.786 22.5432C303.932 22.4178 304.123 22.3557 304.315 22.3703C304.508 22.385 304.686 22.4753 304.812 22.6214L308.424 26.825C308.462 26.8696 308.509 26.9048 308.563 26.9278C308.616 26.9508 308.674 26.961 308.733 26.9576C308.791 26.9548 308.848 26.9387 308.899 26.9105C308.95 26.8823 308.994 26.8428 309.027 26.795L320.105 10.9677C320.159 10.8893 320.229 10.8225 320.31 10.7711C320.39 10.7196 320.48 10.6845 320.574 10.6678C320.669 10.651 320.765 10.653 320.859 10.6735C320.952 10.694 321.04 10.7327 321.119 10.7873C321.197 10.842 321.264 10.9115 321.316 10.9919C321.367 11.0724 321.402 11.1622 321.419 11.2562C321.436 11.3502 321.434 11.4465 321.413 11.5397C321.392 11.633 321.353 11.7212 321.299 11.7994L309.401 28.7998C309.337 28.891 309.254 28.9664 309.156 29.0202C309.059 29.074 308.951 29.1046 308.84 29.1098C308.827 29.1101 308.815 29.1105 308.803 29.1105Z" fill="#F4EEA9"/>
<path d="M190.127 97.9418C194.523 97.9418 198.087 94.3852 198.087 89.9979C198.087 85.6107 194.523 82.0541 190.127 82.0541C185.73 82.0541 182.166 85.6107 182.166 89.9979C182.166 94.3852 185.73 97.9418 190.127 97.9418Z" fill="#3F3D56"/>
<path d="M95.6362 139.388H94.944V207.429H95.6362V139.388Z" fill="#3F3D56"/>
<path d="M94.9176 138.922C94.4587 138.921 94.0067 138.811 93.599 138.601C93.1913 138.391 92.8398 138.087 92.5737 137.714C89.992 134.177 86.9514 130.998 83.5315 128.259C83.41 128.16 83.2879 128.064 83.1654 127.969C81.9465 127.01 80.6667 126.098 79.3601 125.258L79.269 125.2C79.2151 125.166 79.1612 125.132 79.1071 125.099C71.229 120.089 62.0801 117.429 52.738 117.434H2.94201C2.16202 117.433 1.41423 117.123 0.862689 116.573C0.311149 116.023 0.000899564 115.276 0 114.498V78.5146C0.000899564 77.7363 0.311149 76.9901 0.862689 76.4397C1.41423 75.8893 2.16202 75.5798 2.94201 75.5789H94.9439C95.7239 75.5798 96.4717 75.8893 97.0233 76.4397C97.5748 76.9901 97.885 77.7363 97.8859 78.5146V135.978C97.8925 136.6 97.6982 137.208 97.3317 137.711C96.9652 138.214 96.4461 138.586 95.8511 138.772C95.5498 138.871 95.2347 138.921 94.9176 138.922Z" fill="#E6E6E6"/>
<path d="M92.6546 90.1822H28.6626C28.508 90.1822 28.3548 90.1518 28.2119 90.0928C28.069 90.0337 27.9392 89.9471 27.8298 89.838C27.7205 89.7289 27.6337 89.5993 27.5745 89.4567C27.5153 89.3141 27.4849 89.1613 27.4849 89.007C27.4849 88.8526 27.5153 88.6998 27.5745 88.5572C27.6337 88.4146 27.7205 88.285 27.8298 88.1759C27.9392 88.0668 28.069 87.9802 28.2119 87.9211C28.3548 87.8621 28.508 87.8317 28.6626 87.8317H92.6546C92.8093 87.8317 92.9625 87.8621 93.1054 87.9211C93.2483 87.9802 93.3781 88.0668 93.4875 88.1759C93.5968 88.285 93.6836 88.4146 93.7428 88.5572C93.802 88.6998 93.8324 88.8526 93.8324 89.007C93.8324 89.1613 93.802 89.3141 93.7428 89.4567C93.6836 89.5993 93.5968 89.7289 93.4875 89.838C93.3781 89.9471 93.2483 90.0337 93.1054 90.0928C92.9625 90.1518 92.8093 90.1822 92.6546 90.1822Z" fill="#CCCCCC"/>
<path d="M92.6546 95.2722H28.6626C28.3506 95.2717 28.0516 95.1476 27.8311 94.9273C27.6107 94.7069 27.4869 94.4083 27.4869 94.0969C27.4869 93.7856 27.6107 93.4869 27.8311 93.2666C28.0516 93.0462 28.3506 92.9222 28.6626 92.9216H92.6546C92.967 92.9216 93.2666 93.0455 93.4875 93.2659C93.7083 93.4863 93.8324 93.7852 93.8324 94.0969C93.8324 94.4086 93.7083 94.7076 93.4875 94.928C93.2666 95.1484 92.967 95.2722 92.6546 95.2722Z" fill="#CCCCCC"/>
<path d="M92.6546 100.362H28.6626C28.508 100.362 28.3548 100.332 28.2119 100.273C28.069 100.214 27.9392 100.127 27.8298 100.018C27.7205 99.9089 27.6337 99.7794 27.5745 99.6368C27.5153 99.4942 27.4849 99.3413 27.4849 99.187C27.4849 99.0327 27.5153 98.8798 27.5745 98.7372C27.6337 98.5946 27.7205 98.4651 27.8298 98.356C27.9392 98.2468 28.069 98.1602 28.2119 98.1012C28.3548 98.0421 28.508 98.0117 28.6626 98.0117H92.6546C92.8093 98.0117 92.9625 98.0421 93.1054 98.1012C93.2483 98.1602 93.3781 98.2468 93.4875 98.356C93.5968 98.4651 93.6836 98.5946 93.7428 98.7372C93.802 98.8798 93.8324 99.0327 93.8324 99.187C93.8324 99.3413 93.802 99.4942 93.7428 99.6368C93.6836 99.7794 93.5968 99.9089 93.4875 100.018C93.3781 100.127 93.2483 100.214 93.1054 100.273C92.9625 100.332 92.8093 100.362 92.6546 100.362Z" fill="#CCCCCC"/>
<path d="M15.1444 100.362H5.54771C5.13476 100.362 4.73886 100.198 4.44686 99.9066C4.15487 99.6152 3.99062 99.2201 3.99017 98.8081V89.2317C3.99062 88.8197 4.15487 88.4246 4.44686 88.1332C4.73886 87.8418 5.13476 87.6779 5.54771 87.6775H15.1444C15.5573 87.6779 15.9533 87.8418 16.2452 88.1332C16.5372 88.4246 16.7015 88.8197 16.7019 89.2317V98.8081C16.7015 99.2201 16.5372 99.6152 16.2452 99.9066C15.9533 100.198 15.5573 100.362 15.1444 100.362Z" fill="#CCCCCC"/>
<path d="M10.2905 96.6804C10.2081 96.6805 10.1267 96.6628 10.052 96.6284C9.9772 96.5939 9.91083 96.5437 9.85748 96.4811L6.59825 92.6873C6.49982 92.5724 6.45105 92.4233 6.46261 92.2727C6.47417 92.122 6.54513 91.982 6.65994 91.8835C6.77499 91.7851 6.92449 91.7363 7.07556 91.7479C7.22664 91.7595 7.36693 91.8305 7.46558 91.9452L10.0559 94.9602C10.0788 94.9856 10.1069 95.0057 10.1382 95.0192C10.1696 95.0327 10.2036 95.0393 10.2377 95.0385C10.2721 95.0368 10.3056 95.0274 10.3358 95.0107C10.3659 94.9941 10.3918 94.9709 10.4115 94.9427L18.3568 83.5902C18.3997 83.5286 18.4544 83.4761 18.5176 83.4356C18.5809 83.3952 18.6515 83.3675 18.7255 83.3543C18.7995 83.3412 18.8753 83.3427 18.9487 83.3588C19.0221 83.3749 19.0916 83.4053 19.1532 83.4482C19.2148 83.4911 19.2673 83.5458 19.3077 83.609C19.3481 83.6722 19.3756 83.7428 19.3887 83.8166C19.4017 83.8905 19.4 83.9662 19.3837 84.0394C19.3674 84.1126 19.3368 84.1818 19.2936 84.2432L10.7596 96.4366C10.7099 96.5081 10.6443 96.5672 10.5679 96.6093C10.4916 96.6514 10.4065 96.6754 10.3194 96.6794C10.3097 96.6801 10.3001 96.6804 10.2905 96.6804Z" fill="white"/>
<path d="M95.2901 147.332C99.6867 147.332 103.251 143.775 103.251 139.388C103.251 135.001 99.6867 131.444 95.2901 131.444C90.8935 131.444 87.3293 135.001 87.3293 139.388C87.3293 143.775 90.8935 147.332 95.2901 147.332Z" fill="#3F3D56"/>
<path d="M140.024 137.884C150.255 137.884 158.548 129.608 158.548 119.399C158.548 109.19 150.255 100.915 140.024 100.915C129.794 100.915 121.5 109.19 121.5 119.399C121.5 129.608 129.794 137.884 140.024 137.884Z" fill="#F4EEA9"/>
<path d="M139.182 236.604H134.074C133.477 236.603 132.905 236.367 132.484 235.946C132.062 235.525 131.825 234.954 131.824 234.359V191.872C131.825 191.277 132.062 190.706 132.484 190.285C132.905 189.864 133.477 189.628 134.074 189.627H139.182C139.779 189.628 140.35 189.864 140.772 190.285C141.194 190.706 141.431 191.277 141.432 191.872V234.359C141.431 234.954 141.194 235.525 140.772 235.946C140.35 236.367 139.779 236.603 139.182 236.604Z" fill="#F4EEA9"/>
<path d="M166.654 213.816L162.498 216.781C162.012 217.127 161.409 217.266 160.821 217.168C160.233 217.071 159.707 216.744 159.359 216.261L134.595 181.699C134.249 181.215 134.109 180.613 134.207 180.026C134.305 179.439 134.632 178.914 135.117 178.567L139.272 175.602C139.758 175.257 140.361 175.117 140.95 175.215C141.538 175.313 142.064 175.639 142.411 176.123L167.175 210.684C167.522 211.169 167.661 211.77 167.563 212.358C167.466 212.945 167.139 213.469 166.654 213.816Z" fill="#F4EEA9"/>
<path d="M153.237 236.306L148.664 234.034C147.553 233.482 146.929 232.473 147.272 231.785L159.059 208.161C159.402 207.473 160.585 207.362 161.696 207.913L166.269 210.185C167.379 210.737 168.003 211.746 167.66 212.434L155.874 236.058C155.53 236.746 154.347 236.858 153.237 236.306Z" fill="#F4EEA9"/>
<path d="M169.501 182.465C169.501 197.535 155.296 202.395 140.194 202.395C125.093 202.395 114.814 197.535 114.814 182.465C114.814 167.396 124.979 141.71 140.081 141.71C155.182 141.71 169.501 167.396 169.501 182.465Z" fill="#3F3D56"/>
<path d="M128.999 150.1C129.523 150.212 129.988 150.508 130.311 150.934L133.406 154.989C133.767 155.463 133.925 156.06 133.845 156.65C133.765 157.24 133.454 157.774 132.98 158.135L118.395 171.427C117.921 171.788 117.322 171.945 116.731 171.865C116.14 171.785 115.605 171.475 115.243 171.001L115.243 171.001L109.319 163.454C109.14 163.22 109.009 162.952 108.933 162.667C108.858 162.382 108.839 162.085 108.879 161.793C108.919 161.501 109.016 161.219 109.164 160.964C109.313 160.71 109.51 160.487 109.745 160.308L126.114 149.81C126.592 149.446 128.228 149.989 128.823 150.069C128.883 150.077 128.941 150.087 128.999 150.1Z" fill="#3F3D56"/>
<path d="M139.724 101.05C137.541 96.5781 139.476 91.1131 143.036 87.9518C147.335 84.1342 153.749 84.1564 158.853 86.1834C164.395 88.3846 168.516 93.0579 171.48 98.0819C172.974 100.614 174.14 103.296 175.378 105.956C176.591 108.562 177.959 111.165 180.003 113.227C181.714 114.978 183.967 116.102 186.397 116.417C188.628 116.701 191.032 116.25 192.738 114.708C193.145 114.333 193.502 113.906 193.797 113.437C194.16 112.875 193.261 112.355 192.901 112.915C191.658 114.844 189.372 115.567 187.164 115.451C184.727 115.301 182.434 114.246 180.738 112.494C178.675 110.414 177.342 107.75 176.129 105.119C174.88 102.409 173.671 99.6939 172.123 97.1352C169.057 92.0677 164.848 87.4981 159.257 85.2358C154.044 83.1264 147.574 83.0908 142.976 86.6605C139.115 89.6584 136.789 95.0221 138.157 99.845C138.329 100.44 138.553 101.018 138.828 101.573C139.121 102.173 140.016 101.648 139.724 101.05Z" fill="#2F2E41"/>
<path d="M140.359 99.3548L135.429 97.7304C135.192 97.6522 134.972 97.5281 134.783 97.3652C134.594 97.2023 134.438 97.0038 134.326 96.781C134.213 96.5582 134.146 96.3155 134.128 96.0668C134.109 95.818 134.14 95.5681 134.218 95.3312C134.297 95.0944 134.421 94.8752 134.584 94.6863C134.748 94.4974 134.947 94.3424 135.17 94.2303C135.393 94.1181 135.636 94.0509 135.886 94.0325C136.135 94.0141 136.385 94.0449 136.623 94.1231L141.553 95.7475C141.791 95.8254 142.011 95.9492 142.2 96.1121C142.39 96.2749 142.546 96.4735 142.659 96.6964C142.772 96.9194 142.839 97.1624 142.858 97.4114C142.876 97.6605 142.845 97.9108 142.767 98.1479C142.688 98.3851 142.564 98.6044 142.4 98.7935C142.237 98.9826 142.038 99.1376 141.814 99.2497C141.59 99.3618 141.347 99.4288 141.097 99.4468C140.847 99.4649 140.597 99.4336 140.359 99.3548Z" fill="#2F2E41"/>
<path d="M137.558 126.25L137.539 125.56C138.827 125.524 139.962 125.443 140.815 124.821C141.057 124.635 141.256 124.399 141.398 124.129C141.54 123.859 141.623 123.562 141.639 123.257C141.654 123.071 141.626 122.884 141.557 122.711C141.488 122.537 141.38 122.382 141.24 122.258C140.674 121.78 139.763 121.935 139.099 122.239L138.526 122.501L139.624 114.491L140.31 114.585L139.376 121.398C140.278 121.133 141.115 121.247 141.687 121.73C141.907 121.922 142.08 122.161 142.191 122.43C142.303 122.7 142.351 122.991 142.331 123.282C142.311 123.691 142.201 124.09 142.01 124.453C141.819 124.815 141.55 125.131 141.224 125.379C140.127 126.179 138.703 126.218 137.558 126.25Z" fill="#2F2E41"/>
<path d="M147.43 115.172H143.702V115.863H147.43V115.172Z" fill="#2F2E41"/>
<path d="M135.662 115.172H131.934V115.863H135.662V115.172Z" fill="#2F2E41"/>
<path d="M204.415 236.226H92.2607V237H204.415V236.226Z" fill="#3F3D56"/>
</g>
<defs>
<clipPath id="clip0_3_311">
<rect width="323" height="237" fill="white"/>
</clipPath>
</defs>
</svg>
