<svg width="270" height="270" viewBox="0 0 270 270" fill="none" xmlns="http://www.w3.org/2000/svg">
<g clip-path="url(#clip0_3_285)">
<path d="M270 135C270.017 149.762 267.608 164.427 262.871 178.408C262.599 179.206 262.321 180.003 262.036 180.796C257.019 194.67 249.764 207.629 240.56 219.159C237.812 222.606 234.9 225.911 231.824 229.073C228.749 232.24 225.52 235.253 222.139 238.111C203.276 254.107 180.363 264.584 155.925 268.386H155.921C152.806 268.87 149.66 269.246 146.483 269.517C142.701 269.836 138.873 269.997 135 270C116.989 270.023 99.1576 266.431 82.5608 259.437C65.964 252.442 50.94 242.188 38.3791 229.28C37.4964 228.378 36.627 227.462 35.771 226.532C33.6381 224.22 31.5865 221.835 29.6161 219.379C28.5097 217.997 27.43 216.594 26.3769 215.169C19.8901 206.406 14.4931 196.886 10.3047 186.819C8.51853 182.532 6.95869 178.154 5.63161 173.703C5.53575 173.387 5.44388 173.072 5.35202 172.756C5.15231 172.077 4.95927 171.394 4.77288 170.707C1.59564 159.071 -0.00959541 147.062 -4.92257e-05 135C-4.92257e-05 60.4425 60.4424 0 135 0C209.557 0 270 60.4425 270 135Z" fill="#F2F2F2"/>
<path d="M57.2543 80.6932C57.0453 81.9622 57.1171 83.2616 57.4646 84.4998C57.8121 85.7381 58.4269 86.8851 59.2656 87.86C60.1044 88.835 61.1467 89.6142 62.3192 90.1427C63.4916 90.6713 64.7657 90.9363 66.0517 90.9192L87.6015 153.623L101.352 144.173L74.8077 81.3716C74.6357 79.2131 73.678 77.1927 72.1159 75.6932C70.5539 74.1938 68.496 73.3194 66.3324 73.2357C64.1687 73.1521 62.0495 73.8651 60.3763 75.2395C58.7032 76.614 57.5924 78.5544 57.2543 80.6932Z" fill="#A0616A"/>
<path d="M169.731 101.909C160.161 112.797 136.564 131.984 117.125 145.197C112.923 148.053 108.913 150.625 105.282 152.778C102.83 154.231 100.549 155.49 98.4962 156.516C97.1183 157.202 95.6136 157.597 94.0761 157.675C92.5387 157.753 91.0018 157.512 89.5616 156.969C88.1214 156.425 86.809 155.59 85.7066 154.515C84.6042 153.441 83.7355 152.15 83.1549 150.725L69.6949 118.161L74.352 115.073L85.835 107.457L88.4431 105.731L99.2111 131.377L110.566 122.263L117.616 116.603L149.752 90.8134L152.524 89.9906L158.991 96.3013L163.564 100.767L167.865 101.514C168.508 101.625 169.132 101.757 169.731 101.909Z" fill="#064635"/>
<path d="M255.589 191.381C256.256 192.228 256.947 193.071 257.638 193.918C255.258 198.805 252.582 203.543 249.626 208.105C249.406 207.949 249.187 207.793 248.967 207.637C248.932 207.618 248.899 207.597 248.867 207.573C248.049 206.99 247.226 206.415 246.407 205.832V205.828C245.731 203.529 245.354 201.153 245.285 198.758C245.707 198.662 246.089 198.437 246.38 198.116C246.67 197.794 246.855 197.391 246.908 196.961C246.962 196.531 246.882 196.095 246.679 195.712C246.477 195.329 246.161 195.018 245.776 194.82C245.668 194.632 245.592 194.497 245.484 194.305C245.488 194.257 245.496 194.205 245.5 194.157C246.127 189.169 252.486 187.427 255.589 191.381Z" fill="white"/>
<path d="M262.759 174.287C263.238 175.605 263.675 176.937 264.069 178.285C263.797 179.084 263.519 179.88 263.234 180.673C263.126 180.254 263.014 179.834 262.898 179.415C262.249 177.083 261.469 174.79 260.562 172.545C259.819 170.704 258.996 168.901 258.094 167.137C253.185 157.554 246.073 149.272 237.34 142.973C233.732 142.138 230.465 140.218 227.982 137.469C227.087 136.482 226.337 135.371 225.758 134.17C226.125 134.118 226.492 134.046 226.852 133.97C226.964 133.946 227.08 133.918 227.191 133.895L227.235 133.887C227.628 133.795 227.987 133.593 228.267 133.303C228.548 133.013 228.738 132.648 228.816 132.252C228.894 131.856 228.856 131.447 228.707 131.072C228.558 130.697 228.303 130.374 227.974 130.14C227.771 129.992 227.563 129.849 227.359 129.705C227.048 129.477 226.732 129.261 226.417 129.038C226.383 129.017 226.351 128.994 226.321 128.97C225.961 128.714 225.602 128.467 225.246 128.207C225.522 127.317 225.999 126.502 226.64 125.826C228.873 123.522 232.859 123.574 235.463 125.451C238.071 127.328 239.381 130.615 239.549 133.819C239.697 136.563 239.106 139.279 238.327 141.927C238.523 142.07 238.726 142.206 238.922 142.354C242.518 145.019 245.844 148.03 248.851 151.345C247.114 147.223 246.483 141.847 246.934 138.144C247.449 133.926 249.498 129.92 251.176 125.93C253.185 121.137 260.039 121.074 261.972 125.898C261.992 125.946 262.012 125.99 262.028 126.038C261.704 126.362 261.393 126.697 261.093 127.045C260.717 127.483 260.482 128.024 260.419 128.597C260.355 129.171 260.467 129.751 260.738 130.26C261.01 130.769 261.429 131.185 261.94 131.452C262.452 131.719 263.032 131.826 263.605 131.758L263.665 131.75C263.914 133.174 264.056 134.614 264.089 136.059C264.138 140.102 263.352 144.112 261.78 147.837C260.207 151.563 257.882 154.923 254.95 157.707C254.759 157.887 254.571 158.063 254.375 158.234C256.225 160.866 257.887 163.624 259.348 166.49C260.644 169.016 261.784 171.62 262.759 174.287Z" fill="white"/>
<path d="M185.799 136.817L184.593 219.659L87.153 216.863L102.714 182.514C102.602 181.411 109.544 173.675 109.504 172.528C109.384 169.169 111.892 166.058 112.3 162.543C113.131 155.294 108.374 127.919 110.566 122.263C111.5 119.737 112.697 117.317 114.137 115.042C115.383 113.156 116.661 111.886 117.884 111.427L121.486 103.031L124.681 98.2385L149.752 90.8135L152.524 89.9907L158.991 96.3014L163.564 100.767L167.865 101.514C168.508 101.625 169.132 101.757 169.731 101.909C172.616 102.574 175.306 103.907 177.583 105.799C185.092 112.178 185.967 124.176 185.799 136.817Z" fill="#064635"/>
<path d="M241.758 219.036C239.01 222.483 236.098 225.788 233.023 228.95L222.486 228.958L165.822 229.022L155.621 229.034L148.84 229.042L138.75 229.05L130.99 229.057L116.655 229.073L108.2 229.085L90.3941 229.101L81.8947 229.113L58.3416 229.137L43.5475 229.153L39.5774 229.157C38.6947 228.255 37.8253 227.339 36.9692 226.409C34.8364 224.097 32.7848 221.712 30.8143 219.256L39.0342 219.248L44.6339 219.244L57.5987 219.228L82.6176 219.204L91.0731 219.196L94.492 219.192H94.504L97.188 219.188L98.3902 219.184L101.47 219.18H102.772L111.902 219.172L131.597 219.148L140.264 219.14L148.564 219.132L156.344 219.124L167.508 219.112L227.132 219.052L241.758 219.036Z" fill="#CCCCCC"/>
<path d="M106.948 94.6486L106.926 94.6507C105.774 94.7579 104.626 94.403 103.736 93.6641C102.845 92.9251 102.285 91.8627 102.177 90.7105L99.906 66.4666C99.4948 62.1234 99.9612 57.742 101.277 53.5826C103.857 45.4649 109.47 38.6557 116.946 34.5742C120.806 32.4723 125.052 31.1738 129.428 30.7569C147.329 29.0514 153.871 32.7797 164.929 60.082C175.987 87.3843 167.204 84.3628 167.204 84.3628C167.259 84.9471 167.197 85.5366 167.019 86.096C166.671 87.1876 165.915 88.1024 164.908 88.6495C164.392 88.9296 163.824 89.103 163.239 89.1594C142.076 94.5388 120.722 100.201 106.944 94.649L106.948 94.6486Z" fill="#2F2E41"/>
<path d="M146.338 53.7288C148.995 57.6594 150.427 62.2891 150.454 67.0332C150.481 71.7773 149.101 76.423 146.489 80.3835C143.878 84.3441 140.151 87.4418 135.779 89.2854C131.408 91.1291 126.588 91.636 121.929 90.7421C118.845 90.1604 115.907 88.9725 113.285 87.2472C110.663 85.5218 108.41 83.2934 106.655 80.6909C104.004 76.7616 102.576 72.1353 102.551 67.3954C102.525 62.6555 103.904 58.0142 106.512 54.0566C109.121 50.0991 112.843 47.0025 117.209 45.1574C121.575 43.3122 126.39 42.801 131.046 43.6884C134.133 44.2666 137.074 45.452 139.699 47.1757C142.324 48.8994 144.581 51.1271 146.338 53.7297L146.338 53.7288Z" fill="#9E616A"/>
<path d="M92.4015 69.1599C92.0765 65.725 92.4454 62.2598 93.4862 58.9702C93.7276 50.9233 96.0623 43.6347 105.877 43.9406C108.911 42.2902 112.246 41.2669 115.683 40.9316L120.533 40.4526C120.588 40.4472 120.642 40.4419 120.697 40.4369C124.057 40.1241 127.446 40.4763 130.67 41.4733C133.894 42.4703 136.89 44.0925 139.487 46.2474C142.085 48.4023 144.232 51.0477 145.807 54.0325C147.382 57.0172 148.353 60.283 148.666 63.6432L148.711 64.1288L138.45 65.132L134.034 55.6812L134.252 65.5444L128.952 66.0645L126.725 61.2964L126.834 66.2694C118.965 73.1997 107.032 73.563 92.4516 69.646L92.4015 69.1599Z" fill="#2F2E41"/>
<path d="M125.224 92.1655C125.137 92.9643 125.276 93.7716 125.625 94.4955C125.8 94.8663 126.027 95.2106 126.298 95.5185C126.53 95.7806 126.793 96.0145 127.08 96.215C127.93 96.8069 128.963 97.0764 129.994 96.9754C130.058 96.9687 130.122 96.9609 130.186 96.9519C130.25 96.9429 130.314 96.9324 130.378 96.9203C130.442 96.9089 130.506 96.8956 130.569 96.8806C130.633 96.8655 130.696 96.8493 130.76 96.8318L134.341 95.8283L138.355 84.6371L139.275 94.4572L155.56 89.9232L151.656 48.251L123.899 50.986L124.661 51.719C127.19 54.1808 128.991 57.2928 129.866 60.7123C130.734 64.1774 131.002 67.7657 130.658 71.3214C130.337 74.9167 129.671 78.4729 128.67 81.941C127.799 85.012 126.751 88.0302 125.532 90.9806C125.375 91.3593 125.271 91.7581 125.224 92.1655Z" fill="#2F2E41"/>
<path d="M128.926 223.553C128.448 223.552 127.977 223.446 127.546 223.241L50.6523 225.202C50.0623 224.923 49.5709 224.471 49.243 223.906C48.9152 223.342 48.7663 222.691 48.8161 222.04C48.8658 221.389 49.1119 220.768 49.5218 220.26C49.9316 219.752 50.486 219.38 51.1117 219.193L101.418 204.194C101.939 204.038 102.491 204.017 103.022 204.132L180.837 213.617C181.526 213.766 182.147 214.136 182.605 214.67C183.064 215.205 183.335 215.875 183.377 216.579C183.418 217.282 183.229 217.98 182.837 218.565C182.446 219.151 181.873 219.592 181.207 219.822L129.979 223.375C129.64 223.492 129.284 223.552 128.926 223.553Z" fill="#3F3D56"/>
<path d="M131.754 218.2C131.407 218.2 131.065 218.111 130.762 217.942L68.3129 220.859C67.9582 220.66 67.6717 220.359 67.4906 219.995C67.3096 219.631 67.2423 219.221 67.2976 218.818C67.3529 218.415 67.5282 218.038 67.8008 217.737C68.0733 217.435 68.4303 217.222 68.8254 217.126L91.4334 211.639C91.7863 211.554 92.1555 211.565 92.5028 211.67L150.558 211.601C150.971 211.727 151.333 211.983 151.591 212.33C151.849 212.677 151.989 213.097 151.99 213.529C151.992 213.962 151.855 214.383 151.6 214.732C151.344 215.081 150.984 215.339 150.572 215.468L132.358 218.107C132.162 218.169 131.959 218.2 131.754 218.2Z" fill="#2F2E41"/>
<path d="M125.18 214.871C126.261 215.568 127.482 216.019 128.756 216.194C130.03 216.368 131.327 216.26 132.556 215.879C133.784 215.498 134.914 214.852 135.865 213.987C136.817 213.121 137.567 212.058 138.063 210.872L204.164 216.064L200.968 199.688L132.79 199.039C130.742 198.337 128.507 198.411 126.51 199.247C124.512 200.083 122.891 201.623 121.953 203.575C121.015 205.526 120.826 207.754 121.42 209.836C122.015 211.918 123.353 213.71 125.18 214.871Z" fill="#A0616A"/>
<path d="M164.223 108.224C164.223 108.224 174.208 100.235 186.19 114.614C194.271 124.311 209.859 182.931 211.151 207.222C211.233 208.759 210.996 210.296 210.456 211.738C209.916 213.179 209.084 214.493 208.012 215.598C206.94 216.703 205.652 217.574 204.227 218.158C202.803 218.741 201.273 219.024 199.735 218.989L164.502 218.376L160.563 196.228L188.379 196.558L164.223 108.224Z" fill="#064635"/>
<path d="M124.649 223.561C123.44 223.56 122.244 223.318 121.13 222.849L49.8588 224.475C47.9779 223.691 46.4165 222.295 45.4271 220.513C44.4377 218.731 44.0781 216.668 44.4065 214.657L41.7582 152.065C42.1094 149.829 43.2862 147.806 45.0561 146.396C46.826 144.986 49.0604 144.29 51.3181 144.447L117.485 147.191C118.755 147.274 119.994 147.624 121.12 148.216C122.247 148.809 123.236 149.632 124.024 150.632C124.812 151.631 125.381 152.785 125.694 154.019C126.007 155.253 126.058 156.538 125.842 157.793L133.594 216.014C133.23 218.124 132.133 220.037 130.497 221.417C128.86 222.798 126.79 223.557 124.649 223.561Z" fill="#3F3D56"/>
<path d="M70.5296 37.2128L40.7857 37.1289C39.9884 37.128 39.2233 37.4432 38.658 38.0054C38.0927 38.5677 37.7735 39.3312 37.7702 40.1285L37.6623 79.5141C37.6606 80.3106 37.9752 81.0751 38.5369 81.6398C39.0986 82.2045 39.8614 82.5231 40.6579 82.5257L57.1575 82.5736L70.4058 82.6095C71.2029 82.611 71.9679 82.2958 72.5327 81.7333C73.0974 81.1708 73.4156 80.4071 73.4174 79.61L73.4253 77.2814L73.5292 40.2283C73.5308 39.4308 73.2158 38.6653 72.6534 38.0999C72.091 37.5345 71.3271 37.2154 70.5296 37.2128Z" fill="#E6E6E6"/>
<path d="M68.4327 39.5653L42.8706 39.4934C42.1242 39.4925 41.4078 39.7875 40.8785 40.3138C40.3492 40.8401 40.0501 41.5548 40.0468 42.3013L39.9749 67.6237C39.9699 70.9492 41.2841 74.141 43.6292 76.4988C45.9743 78.8567 49.1589 80.1881 52.4844 80.2011L57.3412 80.2131L68.3209 80.245C69.0676 80.2467 69.7843 79.9519 70.3138 79.4254C70.8433 78.8989 71.1421 78.1839 71.1447 77.4372L71.1527 74.889L71.2406 42.3891C71.2422 41.6425 70.9474 40.9257 70.4209 40.3962C69.8945 39.8668 69.1794 39.5679 68.4327 39.5653Z" fill="white"/>
<path d="M65.561 56.8677H45.6305C45.4734 56.8677 45.3179 56.8986 45.1727 56.9587C45.0276 57.0188 44.8957 57.107 44.7847 57.218C44.6736 57.3291 44.5855 57.461 44.5254 57.6061C44.4652 57.7513 44.4343 57.9068 44.4343 58.0639C44.4343 58.221 44.4652 58.3766 44.5254 58.5217C44.5855 58.6668 44.6736 58.7987 44.7847 58.9098C44.8957 59.0208 45.0276 59.109 45.1727 59.1691C45.3179 59.2292 45.4734 59.2601 45.6305 59.2601H65.561C65.8783 59.2601 66.1825 59.1341 66.4069 58.9098C66.6312 58.6854 66.7572 58.3812 66.7572 58.0639C66.7572 57.7466 66.6312 57.4424 66.4069 57.218C66.1825 56.9937 65.8783 56.8677 65.561 56.8677Z" fill="#064635"/>
<path d="M50.012 50.3094H45.6305C45.3133 50.3094 45.009 50.4355 44.7847 50.6598C44.5603 50.8842 44.4343 51.1884 44.4343 51.5057C44.4343 51.8229 44.5603 52.1272 44.7847 52.3515C45.009 52.5759 45.3133 52.7019 45.6305 52.7019H50.012C50.3293 52.7019 50.6336 52.5759 50.8579 52.3515C51.0822 52.1272 51.2083 51.8229 51.2083 51.5057C51.2083 51.1884 51.0822 50.8842 50.8579 50.6598C50.6336 50.4355 50.3293 50.3094 50.012 50.3094Z" fill="#064635"/>
<path d="M65.561 67.3842H45.6305C45.3133 67.3842 45.009 67.5102 44.7847 67.7345C44.5603 67.9589 44.4343 68.2631 44.4343 68.5804C44.4343 68.8976 44.5603 69.2019 44.7847 69.4263C45.009 69.6506 45.3133 69.7766 45.6305 69.7766H65.561C65.8783 69.7766 66.1825 69.6506 66.4069 69.4263C66.6312 69.2019 66.7572 68.8976 66.7572 68.5804C66.7572 68.2631 66.6312 67.9589 66.4069 67.7345C66.1825 67.5102 65.8783 67.3842 65.561 67.3842Z" fill="#064635"/>
<path d="M65.561 62.1279H45.6305C45.3138 62.1279 45.01 62.2538 44.7861 62.4777C44.5621 62.7017 44.4363 63.0054 44.4363 63.3222C44.4363 63.6389 44.5621 63.9426 44.7861 64.1666C45.01 64.3906 45.3138 64.5164 45.6305 64.5164H65.561C65.8777 64.5164 66.1815 64.3906 66.4055 64.1666C66.6294 63.9426 66.7552 63.6389 66.7552 63.3222C66.7552 63.0054 66.6294 62.7017 66.4055 62.4777C66.1815 62.2538 65.8777 62.1279 65.561 62.1279Z" fill="#064635"/>
<path d="M61.6882 54.5394C60.2887 54.5394 58.9206 54.1244 57.7569 53.3468C56.5933 52.5693 55.6863 51.4642 55.1508 50.1712C54.6152 48.8782 54.4751 47.4554 54.7481 46.0828C55.0211 44.7102 55.6951 43.4494 56.6847 42.4597C57.6743 41.4701 58.9351 40.7962 60.3077 40.5232C61.6803 40.2501 63.1031 40.3903 64.3961 40.9258C65.6891 41.4614 66.7942 42.3684 67.5717 43.532C68.3493 44.6957 68.7643 46.0638 68.7643 47.4633C68.7621 49.3393 68.0159 51.1379 66.6894 52.4645C65.3628 53.791 63.5642 54.5372 61.6882 54.5394ZM61.6882 40.879C60.3859 40.8789 59.1129 41.2651 58.0301 41.9886C56.9473 42.7121 56.1034 43.7404 55.6051 44.9436C55.1067 46.1467 54.9763 47.4706 55.2304 48.7478C55.4844 50.0251 56.1115 51.1983 57.0323 52.1191C57.9532 53.04 59.1264 53.6671 60.4036 53.9211C61.6809 54.1752 63.0048 54.0448 64.2079 53.5464C65.411 53.0481 66.4394 52.2042 67.1629 51.1214C67.8864 50.0386 68.2725 48.7656 68.2725 47.4633C68.2705 45.7176 67.5762 44.044 66.3418 42.8097C65.1075 41.5753 63.4339 40.8809 61.6882 40.879Z" fill="#064635"/>
<path d="M64.66 50.2041C64.1712 47.6807 63.1532 45.2895 61.6731 43.1881C61.6397 43.1336 61.5929 43.0886 61.5372 43.0574C61.4814 43.0262 61.4186 43.0098 61.3547 43.0098C61.2908 43.0098 61.228 43.0262 61.1722 43.0574C61.1164 43.0886 61.0696 43.1336 61.0362 43.1881C59.7472 45.4427 58.9232 47.933 58.6131 50.5115C58.5557 50.9816 59.2939 50.9775 59.3507 50.5115C59.4543 49.6759 59.6159 48.8484 59.8342 48.0352C59.8625 48.0296 59.8901 48.0212 59.9166 48.01C60.8974 47.5175 62.0055 47.3371 63.0918 47.4929C63.1013 47.4943 63.1104 47.4922 63.1199 47.4932C63.4786 48.4368 63.7559 49.4093 63.9487 50.4002C64.0387 50.8658 64.7497 50.6687 64.66 50.2041ZM60.0997 47.1306C60.4383 46.0803 60.8693 45.0621 61.3877 44.0879C61.9364 44.9262 62.4129 45.8097 62.8119 46.7287C61.8892 46.6593 60.9626 46.7966 60.0997 47.1306Z" fill="#064635"/>
</g>
<defs>
<clipPath id="clip0_3_285">
<rect width="270" height="270" fill="white"/>
</clipPath>
</defs>
</svg>
