<svg width="1080" height="1080" viewBox="0 0 1080 1080" fill="none" xmlns="http://www.w3.org/2000/svg">
<g clip-path="url(#clip0_140_2)">
<path d="M221.91 127.34C48.2 192.54 70.11 375.34 70.11 375.34C-88.89 560.48 72.33 702.54 72.33 702.54C48.2 901.66 228.85 954.64 228.85 954.64C345.56 1139.78 534.65 1065.12 534.65 1065.12V15C304.54 -52 221.91 127.34 221.91 127.34ZM512.73 1035.4L494.55 1042.85C494.55 1042.85 357.91 1095.17 258.7 926.7C258.7 926.7 81.07 869.11 101.58 687.92C101.58 687.92 -35.49 558.65 99.69 390.17C99.69 390.17 81.07 223.81 228.69 164.48C228.69 164.48 317.45 -16.58 513.03 44.35L512.73 1035.4Z" fill="#519258"/>
<path d="M393.08 35.91C393.08 35.91 326.26 51.65 289.47 113.91C289.47 113.91 278.61 130.21 282.83 214.04L281.83 267.61H258.7V175.61C258.7 175.61 255.59 151.5 228.7 164.43C201.81 177.36 258.1 102.3 258.1 102.3L362.45 27.2H393.08" fill="#519258"/>
<path d="M146.45 224.55C146.45 224.55 91.64 316.6 113.95 365.5C138.83 407.5 165.5 423.1 209.25 438.24C209.25 438.24 217.09 444.65 238.8 441.15L224.32 474.92C224.32 474.92 165.82 464.44 113.95 412.62C113.95 412.62 107.31 405.35 91.33 423.1C75.35 440.85 57.33 454.48 41.96 514.19C26.59 573.9 25.74 514.19 25.74 514.19L60.12 418L93.59 308.84L138.83 215" fill="#519258"/>
<path d="M128.52 822.87C128.52 822.87 74.14 722.35 163.71 665.58C163.71 665.58 197.64 636.76 228.4 630.65H236.54L226.59 602.27C226.59 602.27 162.35 611 108.07 665.14C108.07 665.14 43.07 632.02 40.77 524.95V505.77L15.33 519.77L68.71 680.43L83.19 704.88L101.28 788.72L115.76 828.89" fill="#519258"/>
<path d="M189.67 889.23C189.67 889.23 235.18 919.71 246.94 915.05C258.7 910.39 258.4 878.05 258.4 878.05L256.9 820.12V808.51L284.64 809.68V927.86C284.64 927.86 279.81 948.53 291.27 964.25C302.73 979.97 342.39 1038.48 428.79 1046.78C428.79 1046.78 508.67 1054.78 513.06 1023.63C517.45 992.48 524.06 1000.93 524.06 1000.93L521.06 1042.85L425.76 1068.75L363.63 1047.21L267.32 949.4" fill="#519258"/>
<path d="M513.06 283.07C513.06 283.07 509.31 347.7 444.63 360.8L416.13 367.8L425.13 405.8C425.13 405.8 498.42 366.07 504.75 366.5C511.08 366.93 513.14 366.07 513.02 375.67C512.9 385.27 531.02 371.31 531.02 371.31" fill="#519258"/>
<path d="M512.84 705.32C512.84 705.32 512.25 710.56 506.84 710.32C501.43 710.08 477.43 690.23 449.84 681.93L438.53 680.19L435.59 707.04C435.59 707.04 442.15 706.17 464.54 721.04C486.93 735.91 505.66 746.22 513.07 793.37C520.48 840.52 519.28 857.37 519.28 857.37" fill="#519258"/>
<path d="M258.4 643.75C277.885 643.75 293.68 628.501 293.68 609.69C293.68 590.879 277.885 575.63 258.4 575.63C238.915 575.63 223.12 590.879 223.12 609.69C223.12 628.501 238.915 643.75 258.4 643.75Z" fill="#519258"/>
<path d="M258.4 496.16C277.885 496.16 293.68 480.911 293.68 462.1C293.68 443.289 277.885 428.04 258.4 428.04C238.915 428.04 223.12 443.289 223.12 462.1C223.12 480.911 238.915 496.16 258.4 496.16Z" fill="#519258"/>
<path d="M267.32 326.16C286.805 326.16 302.6 310.911 302.6 292.1C302.6 273.289 286.805 258.04 267.32 258.04C247.835 258.04 232.04 273.289 232.04 292.1C232.04 310.911 247.835 326.16 267.32 326.16Z" fill="#519258"/>
<path d="M267.32 816.37C286.805 816.37 302.6 801.121 302.6 782.31C302.6 763.499 286.805 748.25 267.32 748.25C247.835 748.25 232.04 763.499 232.04 782.31C232.04 801.121 247.835 816.37 267.32 816.37Z" fill="#519258"/>
<path d="M416.13 422.22C435.615 422.22 451.41 406.971 451.41 388.16C451.41 369.349 435.615 354.1 416.13 354.1C396.645 354.1 380.85 369.349 380.85 388.16C380.85 406.971 396.645 422.22 416.13 422.22Z" fill="#519258"/>
<path d="M416.13 714.27C435.615 714.27 451.41 699.021 451.41 680.21C451.41 661.399 435.615 646.15 416.13 646.15C396.645 646.15 380.85 661.399 380.85 680.21C380.85 699.021 396.645 714.27 416.13 714.27Z" fill="#519258"/>
<path d="M538.24 29.2601V1039.83L683.88 1068.74L860.8 938.48L953.72 857.17L994.82 781.99V688.73L1039.1 608.3L1046.14 478.91L996.61 387.41L993.93 325.05L933.45 200.03L838.51 131.74L771.19 51.8501L642.21 13.8101L538.24 29.2601Z" fill="#519258"/>
<path d="M562 45.32L564.17 1022.54L564.37 1037.39C564.37 1037.39 736.97 1107.21 841.37 931.59C841.37 931.59 1003.02 881.33 981.43 692.46C981.43 692.46 1125.72 557.71 983.43 382.1C983.43 382.1 1003.04 208.69 847.6 146.84C847.57 146.84 767.85 -18.19 562 45.32ZM587 68.12C762 10.33 841.43 182.12 841.43 182.12C973.55 238.4 956.89 396.2 956.89 396.2C1077.89 556.01 955.2 678.64 955.2 678.64C973.55 850.51 814.61 905.13 814.61 905.13C725.84 1064.94 603.61 1015.31 603.61 1015.31L587.34 1008.24L587 68.12Z" fill="white"/>
<path d="M694.4 60.11C694.4 60.11 754.2 75.04 787.12 134.11C787.12 134.11 796.84 149.58 793.06 229.11L793.93 279.92H814.65V192.67C814.65 192.67 817.43 169.8 841.47 182.07C865.51 194.34 815.19 123.07 815.19 123.07L721.82 51.85H694.4" fill="white"/>
<path d="M915.09 239.05C915.09 239.05 962.53 308.05 942.56 354.48C922.59 400.91 920.43 415.23 858.9 441.74C858.9 441.74 851.9 447.81 832.46 444.5L845.41 476.5C845.41 476.5 897.76 466.56 944.18 417.41C944.18 417.41 950.11 410.51 964.42 427.35C978.73 444.19 994.88 457.11 1008.59 513.75C1022.3 570.39 1023.11 513.75 1023.11 513.75L992.35 422.52L962.39 319L921.91 230" fill="white"/>
<path d="M931.14 806.6C931.14 806.6 979.8 711.24 899.65 657.39C899.65 657.39 869.29 630.06 841.77 624.26H834.48L843.39 597.34C843.39 597.34 900.87 605.62 949.44 656.98C949.44 656.98 1007.61 625.56 1009.65 523.98V505.8L1032.42 519.06L984.66 671.48L971.66 694.67L955.51 774.2L942.51 812.3" fill="white"/>
<path d="M876.42 869.54C876.42 869.54 835.7 898.45 825.17 894C814.64 889.55 814.92 859 814.92 859L816.27 804V793L791.44 794.11V906.21C791.44 906.21 795.76 925.82 785.5 940.73C775.24 955.64 739.76 1011.14 662.5 1019.01C662.5 1019.01 591.02 1026.61 587.09 997.01C583.16 967.41 577.22 975.47 577.22 975.47L579.92 1015.24L665.2 1039.81L720.79 1019.38L806.98 926.6" fill="white"/>
<path d="M587 294.56C587 294.56 590.36 355.86 648.24 368.29L673.74 374.92L665.65 410.92C665.65 410.92 600.07 373.23 594.4 373.64C588.73 374.05 586.9 373.23 587 382.34C587.1 391.45 571 378.23 571 378.23" fill="white"/>
<path d="M587.24 695.09C587.24 695.09 587.77 700.09 592.62 699.85C597.47 699.61 618.93 680.8 643.62 672.93L653.74 671.27L656.37 696.74C656.37 696.74 650.5 695.91 630.46 710C610.42 724.09 593.66 733.88 587.03 778.61C580.4 823.34 581.48 839.36 581.48 839.36" fill="white"/>
<path d="M814.92 636.69C832.356 636.69 846.49 622.224 846.49 604.38C846.49 586.536 832.356 572.07 814.92 572.07C797.484 572.07 783.35 586.536 783.35 604.38C783.35 622.224 797.484 636.69 814.92 636.69Z" fill="white"/>
<path d="M814.92 496.69C832.356 496.69 846.49 482.224 846.49 464.38C846.49 446.536 832.356 432.07 814.92 432.07C797.484 432.07 783.35 446.536 783.35 464.38C783.35 482.224 797.484 496.69 814.92 496.69Z" fill="white"/>
<path d="M806.93 335.43C824.366 335.43 838.5 320.964 838.5 303.12C838.5 285.276 824.366 270.81 806.93 270.81C789.494 270.81 775.36 285.276 775.36 303.12C775.36 320.964 789.494 335.43 806.93 335.43Z" fill="white"/>
<path d="M806.93 800.43C824.366 800.43 838.5 785.964 838.5 768.12C838.5 750.276 824.366 735.81 806.93 735.81C789.494 735.81 775.36 750.276 775.36 768.12C775.36 785.964 789.494 800.43 806.93 800.43Z" fill="white"/>
<path d="M673.78 426.56C691.216 426.56 705.35 412.094 705.35 394.25C705.35 376.406 691.216 361.94 673.78 361.94C656.344 361.94 642.21 376.406 642.21 394.25C642.21 412.094 656.344 426.56 673.78 426.56Z" fill="white"/>
<path d="M673.78 703.58C691.216 703.58 705.35 689.114 705.35 671.27C705.35 653.426 691.216 638.96 673.78 638.96C656.344 638.96 642.21 653.426 642.21 671.27C642.21 689.114 656.344 703.58 673.78 703.58Z" fill="white"/>
<path d="M534.65 15V1065.12C534.65 1065.12 727.52 1139.78 846.57 954.64C846.57 954.64 1030.83 901.64 1006.22 702.55C1006.22 702.55 1170.71 560.49 1008.48 375.35C1008.48 375.35 1030.83 192.54 853.64 127.35C853.64 127.34 769.36 -52 534.65 15ZM556.65 44.38C756.16 -16.55 846.65 164.51 846.65 164.51C997.25 223.84 978.26 390.2 978.26 390.2C1116.15 558.68 976.34 687.95 976.34 687.95C997.3 869.11 816.11 926.7 816.11 926.7C714.92 1095.17 575.55 1042.85 575.55 1042.85L557 1035.4L556.65 44.38Z" fill="#519258"/>
</g>
<defs>
<clipPath id="clip0_140_2">
<rect width="1080" height="1080" fill="white"/>
</clipPath>
</defs>
</svg>
